<?xml version="1.0" encoding="UTF-8" standalone="no"?>
<!-- Created with Keyshape -->
<svg xmlns="http://www.w3.org/2000/svg" xmlns:xlink="http://www.w3.org/1999/xlink" viewBox="0 0 400 400" text-rendering="geometricPrecision" shape-rendering="geometricPrecision" style="white-space: pre;">
    <defs>
        <mask id="Mask-1">
            <g id="Color-2" transform="translate(140.166,139.5) translate(-134.546,-134.5)">
                <path class="st0" d="M134.6,269L133.8,269L133.9,253L134.6,253L134.9,253L134.9,269L134.6,269ZM138,268.9L137.6,252.9L138.5,252.9L139,268.9L138,268.9ZM130.5,268.9L129.4,268.9L130,252.9L130.9,252.9L130.5,268.9ZM142.2,268.8L141.3,252.8L142.2,252.7L143.2,268.7L142.2,268.8ZM126.3,268.7L125.3,268.6L126.4,252.6L127.4,252.7L126.3,268.7ZM146.5,268.5L145.1,252.6L146,252.5L147.5,268.4L146.5,268.5ZM122.1,268.4L121,268.3L122.6,252.4L123.5,252.5L122.1,268.4ZM150.7,268L148.8,252.1L149.7,252L151.7,267.9L150.7,268ZM117.8,268L116.7,267.9L118.8,252L119.7,252.1L117.8,268ZM154.9,267.5L152.5,251.7L153.4,251.6L155.9,267.4L154.9,267.5ZM113.6,267.4L112.6,267.2L115.2,251.4L116.1,251.6L113.6,267.4ZM159.1,266.7L156.2,251L157.1,250.8L160.1,266.5L159.1,266.7ZM109.4,266.7L108.3,266.5L111.4,250.8L112.3,251L109.4,266.7ZM163.3,265.9L159.9,250.3L160.8,250.1L164.3,265.7L163.3,265.9ZM105.3,265.8C104.9,265.7,104.6,265.6,104.3,265.6L107.9,250L108.8,250.2L105.3,265.8ZM167.4,264.9L163.5,249.4L164.4,249.2L168.4,264.7C168.1,264.8,167.7,264.9,167.4,264.9ZM101.1,264.8C100.8,264.7,100.4,264.6,100.1,264.5L104.2,249L105.1,249.2L101.1,264.8ZM171.5,263.8L167.1,248.4L168,248.1L172.5,263.5L171.5,263.8ZM97,263.7L96,263.4L100.6,248.1L101.5,248.4L97,263.7ZM175.6,262.6L170.7,247.4L171.6,247.1L176.6,262.3L175.6,262.6ZM93,262.5L92,262.2L97,247L97.9,247.3L93,262.5ZM179.6,261.2L174.3,246.1L175.2,245.8L180.7,260.8C180.3,261,179.9,261.1,179.6,261.2ZM88.9,261.1C88.6,261,88.2,260.9,87.9,260.7L93.5,245.7L94.4,246L88.9,261.1ZM183.6,259.8L177.8,244.9L178.7,244.6L184.7,259.4C184.3,259.5,183.9,259.6,183.6,259.8ZM84.9,259.6C84.6,259.5,84.2,259.3,83.9,259.2L89.9,244.4L90.8,244.7L84.9,259.6ZM187.5,258.1L181.2,243.4L182,243L188.5,257.6C188.2,257.9,187.9,258,187.5,258.1ZM81,257.9L80,257.5L86.5,242.9L87.4,243.3L81,257.9ZM191.4,256.4L184.6,241.9L185.5,241.5L192.4,255.9L191.4,256.4ZM77.1,256.2C76.8,256,76.4,255.9,76.1,255.7L83.1,241.3C83.4,241.4,83.6,241.6,83.9,241.7L77.1,256.2ZM195.2,254.5L188,240.2L188.8,239.8L196.1,254L195.2,254.5ZM73.3,254.3L72.3,253.8L79.7,239.6L80.5,240L73.3,254.3ZM199,252.6L191.3,238.6L192.1,238.1L199.9,252.1L199,252.6ZM69.5,252.3L68.6,251.8L76.4,237.8L77.2,238.3L69.5,252.3ZM202.7,250.5L194.6,236.7L195.4,236.2L203.6,249.9L202.7,250.5ZM65.8,250.2L64.9,249.7L73.2,236L74,236.5L65.8,250.2ZM206.3,248.3L197.7,234.8L198.5,234.3L207.1,247.8L206.3,248.3ZM62.2,247.9L61.3,247.3L70,233.9L70.8,234.4L62.2,247.9ZM209.8,245.9L200.8,232.7L201.6,232.2L210.7,245.4L209.8,245.9ZM58.6,245.6L57.7,245L66.8,231.9L67.6,232.4L58.6,245.6ZM213.3,243.5L203.9,230.5L204.7,229.9L214.2,242.8L213.3,243.5ZM55.2,243.1L54.4,242.5L63.9,229.6L64.7,230.2L55.2,243.1ZM216.7,241L206.9,228.3L207.6,227.7L217.5,240.3C217.3,240.5,217,240.7,216.7,241ZM51.8,240.6C51.5,240.4,51.2,240.2,51,239.9L61,227.4L61.7,228L51.8,240.6ZM220,238.3L209.8,226L210.5,225.4L220.8,237.7L220,238.3ZM48.5,237.9L47.7,237.2L58,225L58.7,225.6L48.5,237.9ZM223.3,235.6L212.7,223.6L213.4,223L224.1,234.9L223.3,235.6ZM45.2,235.1L44.4,234.4L55.1,222.5L55.8,223.1L45.2,235.1ZM226.4,232.7L215.5,221L216.2,220.4L227.2,232L226.4,232.7ZM42.1,232.2C41.8,232,41.6,231.7,41.3,231.5L52.4,220L53.1,220.6L42.1,232.2ZM229.4,229.8L218.1,218.4L218.7,217.8L230.1,229C229.9,229.3,229.7,229.5,229.4,229.8ZM39.1,229.3L38.4,228.5L49.8,217.3L50.5,218L39.1,229.3ZM232.4,226.7L220.7,215.7L221.3,215L233,225.9L232.4,226.7ZM36.1,226.2L35.4,225.4L47.2,214.6L47.8,215.3L36.1,226.2ZM235.3,223.6L223.3,213C223.5,212.8,223.7,212.5,223.9,212.3L236,222.8C235.8,223,235.5,223.3,235.3,223.6ZM33.3,223.1L32.6,222.3L44.7,211.9L45.3,212.6L33.3,223.1ZM238,220.3L225.7,210.1L226.3,209.4L238.7,219.5L238,220.3ZM30.5,219.8C30.3,219.5,30,219.2,29.8,219L42.3,209C42.5,209.2,42.7,209.5,42.9,209.7L30.5,219.8ZM240.7,217L228.1,207.2L228.7,206.5L241.4,216.2L240.7,217ZM27.9,216.5L27.3,215.7L40,206L40.6,206.7L27.9,216.5ZM243.3,213.6L230.4,204.2L230.9,203.4L243.9,212.7L243.3,213.6ZM25.3,213.1L24.7,212.2L37.7,202.9L38.2,203.7L25.3,213.1ZM245.7,210.1L232.5,201.1L233,200.3L246.3,209.2L245.7,210.1ZM22.9,209.6C22.7,209.3,22.5,209,22.3,208.7L35.6,199.9L36.1,200.7L22.9,209.6ZM248.1,206.6L234.6,198L235.1,197.2L248.7,205.7L248.1,206.6ZM20.6,206.1L20,205.2L33.6,196.8L34.1,197.6L20.6,206.1ZM250.3,203L236.5,194.8L237,194L250.8,202L250.3,203ZM18.4,202.4L17.9,201.5L31.8,193.5L32.3,194.3L18.4,202.4ZM252.4,199.3L238.4,191.6L238.8,190.8L252.9,198.4L252.4,199.3ZM16.3,198.7L15.8,197.8L29.9,190.3L30.3,191.1L16.3,198.7ZM254.4,195.5L240.1,188.2L240.5,187.4L254.8,194.6L254.4,195.5ZM14.3,195L13.8,194.1L28.1,187L28.5,187.8L14.3,195ZM256.3,191.7L241.8,184.9L242.2,184L256.7,190.7L256.3,191.7ZM12.5,191.2L12.1,190.2L26.7,183.6L27.1,184.4L12.5,191.2ZM258,187.8L243.3,181.5L243.7,180.6L258.4,186.8L258,187.8ZM10.8,187.3L10.4,186.3L25.2,180.1L25.6,180.9L10.8,187.3ZM259.7,183.8L244.8,177.9L245.1,177L260,182.7L259.7,183.8ZM9.2,183.4L8.8,182.4L23.8,176.7L24.1,177.6L9.2,183.4ZM261.2,179.8L246.1,174.4L246.4,173.5L261.5,178.8L261.2,179.8ZM7.7,179.4L7.3,178.4L22.4,173.2L22.7,174.1L7.7,179.4ZM262.5,175.8L247.3,170.9L247.6,170L262.9,174.8L262.5,175.8ZM6.3,175.4L6,174.4L21.3,169.7L21.6,170.6L6.3,175.4ZM263.8,171.7L248.4,167.3L248.7,166.4L264.1,170.7L263.8,171.7ZM5.1,171.3L4.8,170.3L20.2,166.1L20.5,167L5.1,171.3ZM264.9,167.6L249.4,163.7L249.6,162.8L265.1,166.6C265.1,166.9,265,167.3,264.9,167.6ZM4,167.2L3.7,166.2L19.3,162.5L19.5,163.4L4,167.2ZM265.9,163.5L250.3,160.1L250.5,159.2L266.2,162.5L265.9,163.5ZM3,163L2.8,162L18.5,158.8L18.7,159.7L3,163ZM266.7,159.3L251,156.4L251.2,155.5L267,158.3L266.7,159.3ZM2.2,158.9L2,157.8L17.8,155.1L18,156L2.2,158.9ZM267.4,155.1L251.6,152.7L251.7,151.8L267.5,154.1L267.4,155.1ZM1.5,154.7L1.3,153.7L17.1,151.5L17.2,152.4L1.5,154.7ZM268,150.9L252.1,149L252.2,148.1L268.1,149.9L268,150.9ZM0.9,150.4L0.8,149.3L16.7,147.5L16.8,148.4L0.9,150.4ZM268.5,146.7L252.6,145.3L252.7,144.4L268.6,145.7L268.5,146.7ZM0.5,146.2L0.4,145.1L16.4,143.9L16.5,144.8L0.5,146.2ZM268.8,142.4L252.8,141.5L252.9,140.6L268.9,141.4L268.8,142.4ZM0.2,142L0.1,140.9L16.1,140.1L16.1,141L0.2,142ZM269,138.2L253,137.8L253,136.9L269,137.2L269,138.2ZM0,137.7L0,136.6L16,136.3L16,137.2L0,137.7ZM15.933,134.18L-0.0921839,134.174L-0.0921839,133.074L15.9078,133.174L15.9078,134.174ZM253,134L253,133.1L269,132.9L269,134L253,134ZM16.1,130.7L0.1,130.2L0.1,129.1L16.1,129.7L16.1,130.7ZM252.9,130.3L252.9,129.4L268.9,128.7L268.9,129.8L252.9,130.3ZM16.2,127L0.2,126L0.3,124.9L16.3,126L16.2,127ZM252.7,126.5L252.6,125.6L268.6,124.4L268.7,125.5L252.7,126.5ZM16.5,123.3L0.6,121.8L0.7,120.7L16.6,122.3L16.5,123.3ZM252.4,122.8L252.3,121.9L268.2,120.2L268.3,121.3L252.4,122.8ZM16.9,119.5L1,117.5L1.1,116.4L17,118.5L16.9,119.5ZM252,119.1L251.9,118.2L267.8,116L267.9,117.1L252,119.1ZM17.5,115.8L1.7,113.3L1.9,112.3L17.7,114.9L17.5,115.8ZM251.5,115.4L251.3,114.5L267.1,111.8L267.3,112.9L251.5,115.4ZM18.1,112.1L2.4,109.1L2.6,108.1L18.3,111.2L18.1,112.1ZM250.8,111.7L250.6,110.8L266.3,107.6L266.5,108.6L250.8,111.7ZM18.9,108.5L3.3,105L3.5,104L19.1,107.6L18.9,108.5ZM250,108L249.8,107.1L265.4,103.4L265.6,104.4L250,108ZM19.7,104.8L4.2,100.8C4.3,100.5,4.4,100.1,4.5,99.8L20,103.9L19.7,104.8ZM249.1,104.4L248.9,103.5L264.3,99.3L264.6,100.3L249.1,104.4ZM20.7,101.2L5.4,96.7C5.5,96.4,5.6,96,5.7,95.7L21,100.3L20.7,101.2ZM248.1,100.7L247.8,99.8L263.1,95.1C263.2,95.4,263.3,95.8,263.4,96.1L248.1,100.7ZM21.8,97.6L6.6,92.6L6.9,91.6L22.1,96.7L21.8,97.6ZM247,97.2L246.7,96.3L261.8,91.1L262.1,92.1L247,97.2ZM23.1,94.1L8,88.6L8.4,87.6L23.4,93.2L23.1,94.1ZM245.8,93.7L245.5,92.8L260.5,87.2L260.9,88.2L245.8,93.7ZM24.4,90.6L9.5,84.6L9.9,83.6L24.7,89.6L24.4,90.6ZM244.4,90.2L244,89.3L258.8,83.2L259.2,84.2L244.4,90.2ZM25.9,87.1L11.2,80.7L11.6,79.7L26.2,86.2L25.9,87.1ZM243,86.7L242.6,85.8L257.2,79.2L257.6,80.2L243,86.7ZM27.4,83.7L13,76.8L13.5,75.8L27.9,82.8L27.4,83.7ZM241.4,83.3L241,82.5L255.4,75.5L255.9,76.5L241.4,83.3ZM29.1,80.3L14.9,73L15.4,72.1L29.6,79.5L29.1,80.3ZM239.7,80L239.3,79.2L253.4,71.7L253.9,72.6L239.7,80ZM30.8,77L16.8,69.2L17.3,68.3L31.2,76.2L30.8,77ZM238,76.7L237.5,75.9L251.4,68L251.9,68.9L238,76.7ZM32.7,73.8L19,65.5L19.5,64.6L33.2,73L32.7,73.8ZM236.1,73.5L235.6,72.7L249.2,64.3L249.8,65.2L236.1,73.5ZM34.7,70.6L21.2,62C21.4,61.7,21.6,61.4,21.8,61.1L35.2,69.9L34.7,70.6ZM234.1,70.3L233.6,69.5L247,60.7L247.6,61.6L234.1,70.3ZM36.8,67.4L23.6,58.3C23.8,58,24,57.7,24.2,57.4L37.3,66.6L36.8,67.4ZM232,67.2L231.5,66.4L244.6,57.2L245.2,58.1L232,67.2ZM38.9,64.4L26,54.9L26.6,54.1L39.5,63.6L38.9,64.4ZM229.9,64.2L229.3,63.4L242.1,53.8L242.7,54.6L229.9,64.2ZM41.2,61.4L28.6,51.5L29.3,50.7L41.8,60.7L41.2,61.4ZM227.6,61.2L227,60.5L239.5,50.5L240.2,51.3L227.6,61.2ZM43.6,58.5L31.3,48.2C31.5,47.9,31.8,47.7,32,47.4L44.2,57.8L43.6,58.5ZM225.2,58.3L224.6,57.6L236.8,47.2C237,47.5,237.3,47.7,237.5,48L225.2,58.3ZM46,55.7L34.1,45C34.3,44.7,34.6,44.5,34.8,44.2L46.6,55C46.4,55.2,46.2,55.4,46,55.7ZM222.8,55.4L222.2,54.7L234,44L234.7,44.8L222.8,55.4ZM48.6,52.9L37,41.9L37.7,41.1L49.2,52.2L48.6,52.9ZM220.2,52.7L219.6,52L231.1,40.9L231.8,41.7L220.2,52.7ZM51.2,50.2L39.9,38.8C40.2,38.5,40.4,38.3,40.7,38L51.8,49.5L51.2,50.2ZM217.6,50L216.9,49.4L228,37.9C228.3,38.1,228.5,38.4,228.8,38.7L217.6,50ZM53.9,47.6L43,35.9L43.8,35.2L54.6,47L53.9,47.6ZM214.9,47.4L214.2,46.8L225,35L225.8,35.7L214.9,47.4ZM56.7,45.1L46.2,33.1L47,32.4L57.4,44.5L56.7,45.1ZM212.1,44.9L211.4,44.3L221.8,32.1L222.6,32.8L212.1,44.9ZM59.5,42.7L49.4,30.3C49.7,30.1,50,29.8,50.2,29.6L60.2,42.1L59.5,42.7ZM209.2,42.5L208.5,41.9L218.5,29.4C218.8,29.6,219.1,29.8,219.3,30.1L209.2,42.5ZM62.5,40.4L52.8,27.7L53.6,27.1L63.3,39.9L62.5,40.4ZM206.3,40.2L205.6,39.6L215.2,26.8L216.1,27.4L206.3,40.2ZM65.5,38.2L56.2,25.2C56.5,25,56.8,24.8,57.1,24.6L66.3,37.7L65.5,38.2ZM203.3,38L202.5,37.5L211.7,24.4C212,24.6,212.3,24.8,212.6,25L203.3,38ZM68.6,36L59.7,22.7C60,22.5,60.3,22.3,60.6,22.1L69.4,35.5L68.6,36ZM200.2,35.8L199.4,35.3L208.2,21.9L209.1,22.5L200.2,35.8ZM71.7,34L63.2,20.4C63.5,20.2,63.8,20,64.1,19.8L72.5,33.4L71.7,34ZM197,33.8L196.2,33.3L204.5,19.6C204.8,19.8,205.1,20,205.4,20.2L197,33.8ZM74.9,32.1L66.9,18.3L67.8,17.8L75.8,31.7L74.9,32.1ZM193.8,31.9L193,31.4L200.9,17.5L201.8,18L193.8,31.9ZM78.1,30.2L70.5,16.1L71.4,15.6L79,29.8L78.1,30.2ZM190.5,30.1L189.6,29.6L197.1,15.5L198,16L190.5,30.1ZM81.5,28.5L74.3,14.2L75.2,13.7L82.3,28L81.5,28.5ZM187.2,28.3L186.4,27.9L193.4,13.5L194.4,14L187.2,28.3ZM84.8,26.9L78.1,12.4C78.4,12.2,78.8,12.1,79.1,12L85.7,26.6L84.8,26.9ZM183.8,26.7L183,26.3L189.5,11.7C189.8,11.8,190.2,12,190.5,12.1L183.8,26.7ZM88.2,25.4L82,10.6C82.3,10.5,82.7,10.3,83,10.2L89.1,25C88.8,25.1,88.5,25.2,88.2,25.4ZM180.3,25.2C180,25.1,179.7,25,179.5,24.9L185.6,10.1C185.9,10.2,186.3,10.4,186.6,10.5L180.3,25.2ZM91.7,24L85.9,9L86.9,8.6L92.6,23.6L91.7,24ZM176.9,23.8L176,23.5L181.6,8.5C181.9,8.6,182.3,8.8,182.6,8.9L176.9,23.8ZM95.2,22.7L89.9,7.6L90.9,7.3L96.1,22.4L95.2,22.7ZM173.4,22.5L172.5,22.2L177.6,7L178.6,7.3L173.4,22.5ZM98.8,21.5L93.9,6.2C94.2,6.1,94.6,6,94.9,5.9L99.5,21.2C99.3,21.3,99,21.4,98.8,21.5ZM169.8,21.3L168.9,21L173.5,5.7C173.8,5.8,174.2,5.9,174.5,6L169.8,21.3ZM102.3,20.4L98,5L99,4.7L103.2,20.1L102.3,20.4ZM166.2,20.3L165.3,20.1L169.4,4.6C169.7,4.7,170.1,4.8,170.4,4.9L166.2,20.3ZM106,19.5L102.2,4C102.5,3.9,102.9,3.8,103.2,3.7L106.9,19.3L106,19.5ZM162.6,19.3L161.7,19.1L165.4,3.5L166.4,3.7L162.6,19.3ZM109.6,18.6L106.3,3L107.3,2.8L110.5,18.5L109.6,18.6ZM158.9,18.5L158,18.3L161.1,2.6C161.5,2.7,161.8,2.7,162.2,2.8L158.9,18.5ZM113.3,17.9L110.4,2.2C110.8,2.1,111.1,2.1,111.5,2L114.2,17.8L113.3,17.9ZM155.2,17.8L154.3,17.6L157,1.9L158,2.1L155.2,17.8ZM117,17.3L114.7,1.5L115.8,1.3L118,17.1L117,17.3ZM151.5,17.2L150.6,17.1L152.8,1.2L153.9,1.3L151.5,17.2ZM120.7,16.8L118.9,0.9L119.9,0.8L121.6,16.7L120.7,16.8ZM147.8,16.7L146.9,16.6L148.5,0.7L149.6,0.8L147.8,16.7ZM124.4,16.4L123,0.5L124.1,0.4L125.3,16.4L124.4,16.4ZM144.1,16.4L143.2,16.3L144.4,0.3L145.4,0.4L144.1,16.4ZM128.2,16.2L127.4,0.2L128.5,0.1L129.2,16.1L128.2,16.2ZM140.3,16.1L139.4,16.1L140.1,0.1L141.2,0.1L140.3,16.1ZM131.9,16L131.6,0L132.6,0L132.8,16L131.9,16ZM136.6,16L135.7,16L135.8,0L136.9,0L136.6,16Z" fill="#E6E6E6" transform="translate(0.0921839,0)"/>
            </g>
            <path class="st0" d="M134.6,269L133.8,269L133.9,253L134.6,253L134.9,253L134.9,269L134.6,269ZM138,268.9L137.6,252.9L138.5,252.9L139,268.9L138,268.9ZM130.5,268.9L129.4,268.9L130,252.9L130.9,252.9L130.5,268.9ZM142.2,268.8L141.3,252.8L142.2,252.7L143.2,268.7L142.2,268.8ZM126.3,268.7L125.3,268.6L126.4,252.6L127.4,252.7L126.3,268.7ZM146.5,268.5L145.1,252.6L146,252.5L147.5,268.4L146.5,268.5ZM122.1,268.4L121,268.3L122.6,252.4L123.5,252.5L122.1,268.4ZM150.7,268L148.8,252.1L149.7,252L151.7,267.9L150.7,268ZM117.8,268L116.7,267.9L118.8,252L119.7,252.1L117.8,268ZM154.9,267.5L152.5,251.7L153.4,251.6L155.9,267.4L154.9,267.5ZM113.6,267.4L112.6,267.2L115.2,251.4L116.1,251.6L113.6,267.4ZM159.1,266.7L156.2,251L157.1,250.8L160.1,266.5L159.1,266.7ZM109.4,266.7L108.3,266.5L111.4,250.8L112.3,251L109.4,266.7ZM163.3,265.9L159.9,250.3L160.8,250.1L164.3,265.7L163.3,265.9ZM105.3,265.8C104.9,265.7,104.6,265.6,104.3,265.6L107.9,250L108.8,250.2L105.3,265.8ZM167.4,264.9L163.5,249.4L164.4,249.2L168.4,264.7C168.1,264.8,167.7,264.9,167.4,264.9ZM101.1,264.8C100.8,264.7,100.4,264.6,100.1,264.5L104.2,249L105.1,249.2L101.1,264.8ZM171.5,263.8L167.1,248.4L168,248.1L172.5,263.5L171.5,263.8ZM97,263.7L96,263.4L100.6,248.1L101.5,248.4L97,263.7ZM175.6,262.6L170.7,247.4L171.6,247.1L176.6,262.3L175.6,262.6ZM93,262.5L92,262.2L97,247L97.9,247.3L93,262.5ZM179.6,261.2L174.3,246.1L175.2,245.8L180.7,260.8C180.3,261,179.9,261.1,179.6,261.2ZM88.9,261.1C88.6,261,88.2,260.9,87.9,260.7L93.5,245.7L94.4,246L88.9,261.1ZM183.6,259.8L177.8,244.9L178.7,244.6L184.7,259.4C184.3,259.5,183.9,259.6,183.6,259.8ZM84.9,259.6C84.6,259.5,84.2,259.3,83.9,259.2L89.9,244.4L90.8,244.7L84.9,259.6ZM187.5,258.1L181.2,243.4L182,243L188.5,257.6C188.2,257.9,187.9,258,187.5,258.1ZM81,257.9L80,257.5L86.5,242.9L87.4,243.3L81,257.9ZM191.4,256.4L184.6,241.9L185.5,241.5L192.4,255.9L191.4,256.4ZM77.1,256.2C76.8,256,76.4,255.9,76.1,255.7L83.1,241.3C83.4,241.4,83.6,241.6,83.9,241.7L77.1,256.2ZM195.2,254.5L188,240.2L188.8,239.8L196.1,254L195.2,254.5ZM73.3,254.3L72.3,253.8L79.7,239.6L80.5,240L73.3,254.3ZM199,252.6L191.3,238.6L192.1,238.1L199.9,252.1L199,252.6ZM69.5,252.3L68.6,251.8L76.4,237.8L77.2,238.3L69.5,252.3ZM202.7,250.5L194.6,236.7L195.4,236.2L203.6,249.9L202.7,250.5ZM65.8,250.2L64.9,249.7L73.2,236L74,236.5L65.8,250.2ZM206.3,248.3L197.7,234.8L198.5,234.3L207.1,247.8L206.3,248.3ZM62.2,247.9L61.3,247.3L70,233.9L70.8,234.4L62.2,247.9ZM209.8,245.9L200.8,232.7L201.6,232.2L210.7,245.4L209.8,245.9ZM58.6,245.6L57.7,245L66.8,231.9L67.6,232.4L58.6,245.6ZM213.3,243.5L203.9,230.5L204.7,229.9L214.2,242.8L213.3,243.5ZM55.2,243.1L54.4,242.5L63.9,229.6L64.7,230.2L55.2,243.1ZM216.7,241L206.9,228.3L207.6,227.7L217.5,240.3C217.3,240.5,217,240.7,216.7,241ZM51.8,240.6C51.5,240.4,51.2,240.2,51,239.9L61,227.4L61.7,228L51.8,240.6ZM220,238.3L209.8,226L210.5,225.4L220.8,237.7L220,238.3ZM48.5,237.9L47.7,237.2L58,225L58.7,225.6L48.5,237.9ZM223.3,235.6L212.7,223.6L213.4,223L224.1,234.9L223.3,235.6ZM45.2,235.1L44.4,234.4L55.1,222.5L55.8,223.1L45.2,235.1ZM226.4,232.7L215.5,221L216.2,220.4L227.2,232L226.4,232.7ZM42.1,232.2C41.8,232,41.6,231.7,41.3,231.5L52.4,220L53.1,220.6L42.1,232.2ZM229.4,229.8L218.1,218.4L218.7,217.8L230.1,229C229.9,229.3,229.7,229.5,229.4,229.8ZM39.1,229.3L38.4,228.5L49.8,217.3L50.5,218L39.1,229.3ZM232.4,226.7L220.7,215.7L221.3,215L233,225.9L232.4,226.7ZM36.1,226.2L35.4,225.4L47.2,214.6L47.8,215.3L36.1,226.2ZM235.3,223.6L223.3,213C223.5,212.8,223.7,212.5,223.9,212.3L236,222.8C235.8,223,235.5,223.3,235.3,223.6ZM33.3,223.1L32.6,222.3L44.7,211.9L45.3,212.6L33.3,223.1ZM238,220.3L225.7,210.1L226.3,209.4L238.7,219.5L238,220.3ZM30.5,219.8C30.3,219.5,30,219.2,29.8,219L42.3,209C42.5,209.2,42.7,209.5,42.9,209.7L30.5,219.8ZM240.7,217L228.1,207.2L228.7,206.5L241.4,216.2L240.7,217ZM27.9,216.5L27.3,215.7L40,206L40.6,206.7L27.9,216.5ZM243.3,213.6L230.4,204.2L230.9,203.4L243.9,212.7L243.3,213.6ZM25.3,213.1L24.7,212.2L37.7,202.9L38.2,203.7L25.3,213.1ZM245.7,210.1L232.5,201.1L233,200.3L246.3,209.2L245.7,210.1ZM22.9,209.6C22.7,209.3,22.5,209,22.3,208.7L35.6,199.9L36.1,200.7L22.9,209.6ZM248.1,206.6L234.6,198L235.1,197.2L248.7,205.7L248.1,206.6ZM20.6,206.1L20,205.2L33.6,196.8L34.1,197.6L20.6,206.1ZM250.3,203L236.5,194.8L237,194L250.8,202L250.3,203ZM18.4,202.4L17.9,201.5L31.8,193.5L32.3,194.3L18.4,202.4ZM252.4,199.3L238.4,191.6L238.8,190.8L252.9,198.4L252.4,199.3ZM16.3,198.7L15.8,197.8L29.9,190.3L30.3,191.1L16.3,198.7ZM254.4,195.5L240.1,188.2L240.5,187.4L254.8,194.6L254.4,195.5ZM14.3,195L13.8,194.1L28.1,187L28.5,187.8L14.3,195ZM256.3,191.7L241.8,184.9L242.2,184L256.7,190.7L256.3,191.7ZM12.5,191.2L12.1,190.2L26.7,183.6L27.1,184.4L12.5,191.2ZM258,187.8L243.3,181.5L243.7,180.6L258.4,186.8L258,187.8ZM10.8,187.3L10.4,186.3L25.2,180.1L25.6,180.9L10.8,187.3ZM259.7,183.8L244.8,177.9L245.1,177L260,182.7L259.7,183.8ZM9.2,183.4L8.8,182.4L23.8,176.7L24.1,177.6L9.2,183.4ZM261.2,179.8L246.1,174.4L246.4,173.5L261.5,178.8L261.2,179.8ZM7.7,179.4L7.3,178.4L22.4,173.2L22.7,174.1L7.7,179.4ZM262.5,175.8L247.3,170.9L247.6,170L262.9,174.8L262.5,175.8ZM6.3,175.4L6,174.4L21.3,169.7L21.6,170.6L6.3,175.4ZM263.8,171.7L248.4,167.3L248.7,166.4L264.1,170.7L263.8,171.7ZM5.1,171.3L4.8,170.3L20.2,166.1L20.5,167L5.1,171.3ZM264.9,167.6L249.4,163.7L249.6,162.8L265.1,166.6C265.1,166.9,265,167.3,264.9,167.6ZM4,167.2L3.7,166.2L19.3,162.5L19.5,163.4L4,167.2ZM265.9,163.5L250.3,160.1L250.5,159.2L266.2,162.5L265.9,163.5ZM3,163L2.8,162L18.5,158.8L18.7,159.7L3,163ZM266.7,159.3L251,156.4L251.2,155.5L267,158.3L266.7,159.3ZM2.2,158.9L2,157.8L17.8,155.1L18,156L2.2,158.9ZM267.4,155.1L251.6,152.7L251.7,151.8L267.5,154.1L267.4,155.1ZM1.5,154.7L1.3,153.7L17.1,151.5L17.2,152.4L1.5,154.7ZM268,150.9L252.1,149L252.2,148.1L268.1,149.9L268,150.9ZM0.9,150.4L0.8,149.3L16.7,147.5L16.8,148.4L0.9,150.4ZM268.5,146.7L252.6,145.3L252.7,144.4L268.6,145.7L268.5,146.7ZM0.5,146.2L0.4,145.1L16.4,143.9L16.5,144.8L0.5,146.2ZM268.8,142.4L252.8,141.5L252.9,140.6L268.9,141.4L268.8,142.4ZM0.2,142L0.1,140.9L16.1,140.1L16.1,141L0.2,142ZM269,138.2L253,137.8L253,136.9L269,137.2L269,138.2ZM0,137.7L0,136.6L16,136.3L16,137.2L0,137.7ZM15.933,134.18L-0.0921839,134.174L-0.0921839,133.074L15.9078,133.174L15.9078,134.174ZM253,134L253,133.1L269,132.9L269,134L253,134ZM16.1,130.7L0.1,130.2L0.1,129.1L16.1,129.7L16.1,130.7ZM252.9,130.3L252.9,129.4L268.9,128.7L268.9,129.8L252.9,130.3ZM16.2,127L0.2,126L0.3,124.9L16.3,126L16.2,127ZM252.7,126.5L252.6,125.6L268.6,124.4L268.7,125.5L252.7,126.5ZM16.5,123.3L0.6,121.8L0.7,120.7L16.6,122.3L16.5,123.3ZM252.4,122.8L252.3,121.9L268.2,120.2L268.3,121.3L252.4,122.8ZM16.9,119.5L1,117.5L1.1,116.4L17,118.5L16.9,119.5ZM252,119.1L251.9,118.2L267.8,116L267.9,117.1L252,119.1ZM17.5,115.8L1.7,113.3L1.9,112.3L17.7,114.9L17.5,115.8ZM251.5,115.4L251.3,114.5L267.1,111.8L267.3,112.9L251.5,115.4ZM18.1,112.1L2.4,109.1L2.6,108.1L18.3,111.2L18.1,112.1ZM250.8,111.7L250.6,110.8L266.3,107.6L266.5,108.6L250.8,111.7ZM18.9,108.5L3.3,105L3.5,104L19.1,107.6L18.9,108.5ZM250,108L249.8,107.1L265.4,103.4L265.6,104.4L250,108ZM19.7,104.8L4.2,100.8C4.3,100.5,4.4,100.1,4.5,99.8L20,103.9L19.7,104.8ZM249.1,104.4L248.9,103.5L264.3,99.3L264.6,100.3L249.1,104.4ZM20.7,101.2L5.4,96.7C5.5,96.4,5.6,96,5.7,95.7L21,100.3L20.7,101.2ZM248.1,100.7L247.8,99.8L263.1,95.1C263.2,95.4,263.3,95.8,263.4,96.1L248.1,100.7ZM21.8,97.6L6.6,92.6L6.9,91.6L22.1,96.7L21.8,97.6ZM247,97.2L246.7,96.3L261.8,91.1L262.1,92.1L247,97.2ZM23.1,94.1L8,88.6L8.4,87.6L23.4,93.2L23.1,94.1ZM245.8,93.7L245.5,92.8L260.5,87.2L260.9,88.2L245.8,93.7ZM24.4,90.6L9.5,84.6L9.9,83.6L24.7,89.6L24.4,90.6ZM244.4,90.2L244,89.3L258.8,83.2L259.2,84.2L244.4,90.2ZM25.9,87.1L11.2,80.7L11.6,79.7L26.2,86.2L25.9,87.1ZM243,86.7L242.6,85.8L257.2,79.2L257.6,80.2L243,86.7ZM27.4,83.7L13,76.8L13.5,75.8L27.9,82.8L27.4,83.7ZM241.4,83.3L241,82.5L255.4,75.5L255.9,76.5L241.4,83.3ZM29.1,80.3L14.9,73L15.4,72.1L29.6,79.5L29.1,80.3ZM239.7,80L239.3,79.2L253.4,71.7L253.9,72.6L239.7,80ZM30.8,77L16.8,69.2L17.3,68.3L31.2,76.2L30.8,77ZM238,76.7L237.5,75.9L251.4,68L251.9,68.9L238,76.7ZM32.7,73.8L19,65.5L19.5,64.6L33.2,73L32.7,73.8ZM236.1,73.5L235.6,72.7L249.2,64.3L249.8,65.2L236.1,73.5ZM34.7,70.6L21.2,62C21.4,61.7,21.6,61.4,21.8,61.1L35.2,69.9L34.7,70.6ZM234.1,70.3L233.6,69.5L247,60.7L247.6,61.6L234.1,70.3ZM36.8,67.4L23.6,58.3C23.8,58,24,57.7,24.2,57.4L37.3,66.6L36.8,67.4ZM232,67.2L231.5,66.4L244.6,57.2L245.2,58.1L232,67.2ZM38.9,64.4L26,54.9L26.6,54.1L39.5,63.6L38.9,64.4ZM229.9,64.2L229.3,63.4L242.1,53.8L242.7,54.6L229.9,64.2ZM41.2,61.4L28.6,51.5L29.3,50.7L41.8,60.7L41.2,61.4ZM227.6,61.2L227,60.5L239.5,50.5L240.2,51.3L227.6,61.2ZM43.6,58.5L31.3,48.2C31.5,47.9,31.8,47.7,32,47.4L44.2,57.8L43.6,58.5ZM225.2,58.3L224.6,57.6L236.8,47.2C237,47.5,237.3,47.7,237.5,48L225.2,58.3ZM46,55.7L34.1,45C34.3,44.7,34.6,44.5,34.8,44.2L46.6,55C46.4,55.2,46.2,55.4,46,55.7ZM222.8,55.4L222.2,54.7L234,44L234.7,44.8L222.8,55.4ZM48.6,52.9L37,41.9L37.7,41.1L49.2,52.2L48.6,52.9ZM220.2,52.7L219.6,52L231.1,40.9L231.8,41.7L220.2,52.7ZM51.2,50.2L39.9,38.8C40.2,38.5,40.4,38.3,40.7,38L51.8,49.5L51.2,50.2ZM217.6,50L216.9,49.4L228,37.9C228.3,38.1,228.5,38.4,228.8,38.7L217.6,50ZM53.9,47.6L43,35.9L43.8,35.2L54.6,47L53.9,47.6ZM214.9,47.4L214.2,46.8L225,35L225.8,35.7L214.9,47.4ZM56.7,45.1L46.2,33.1L47,32.4L57.4,44.5L56.7,45.1ZM212.1,44.9L211.4,44.3L221.8,32.1L222.6,32.8L212.1,44.9ZM59.5,42.7L49.4,30.3C49.7,30.1,50,29.8,50.2,29.6L60.2,42.1L59.5,42.7ZM209.2,42.5L208.5,41.9L218.5,29.4C218.8,29.6,219.1,29.8,219.3,30.1L209.2,42.5ZM62.5,40.4L52.8,27.7L53.6,27.1L63.3,39.9L62.5,40.4ZM206.3,40.2L205.6,39.6L215.2,26.8L216.1,27.4L206.3,40.2ZM65.5,38.2L56.2,25.2C56.5,25,56.8,24.8,57.1,24.6L66.3,37.7L65.5,38.2ZM203.3,38L202.5,37.5L211.7,24.4C212,24.6,212.3,24.8,212.6,25L203.3,38ZM68.6,36L59.7,22.7C60,22.5,60.3,22.3,60.6,22.1L69.4,35.5L68.6,36ZM200.2,35.8L199.4,35.3L208.2,21.9L209.1,22.5L200.2,35.8ZM71.7,34L63.2,20.4C63.5,20.2,63.8,20,64.1,19.8L72.5,33.4L71.7,34ZM197,33.8L196.2,33.3L204.5,19.6C204.8,19.8,205.1,20,205.4,20.2L197,33.8ZM74.9,32.1L66.9,18.3L67.8,17.8L75.8,31.7L74.9,32.1ZM193.8,31.9L193,31.4L200.9,17.5L201.8,18L193.8,31.9ZM78.1,30.2L70.5,16.1L71.4,15.6L79,29.8L78.1,30.2ZM190.5,30.1L189.6,29.6L197.1,15.5L198,16L190.5,30.1ZM81.5,28.5L74.3,14.2L75.2,13.7L82.3,28L81.5,28.5ZM187.2,28.3L186.4,27.9L193.4,13.5L194.4,14L187.2,28.3ZM84.8,26.9L78.1,12.4C78.4,12.2,78.8,12.1,79.1,12L85.7,26.6L84.8,26.9ZM183.8,26.7L183,26.3L189.5,11.7C189.8,11.8,190.2,12,190.5,12.1L183.8,26.7ZM88.2,25.4L82,10.6C82.3,10.5,82.7,10.3,83,10.2L89.1,25C88.8,25.1,88.5,25.2,88.2,25.4ZM180.3,25.2C180,25.1,179.7,25,179.5,24.9L185.6,10.1C185.9,10.2,186.3,10.4,186.6,10.5L180.3,25.2ZM91.7,24L85.9,9L86.9,8.6L92.6,23.6L91.7,24ZM176.9,23.8L176,23.5L181.6,8.5C181.9,8.6,182.3,8.8,182.6,8.9L176.9,23.8ZM95.2,22.7L89.9,7.6L90.9,7.3L96.1,22.4L95.2,22.7ZM173.4,22.5L172.5,22.2L177.6,7L178.6,7.3L173.4,22.5ZM98.8,21.5L93.9,6.2C94.2,6.1,94.6,6,94.9,5.9L99.5,21.2C99.3,21.3,99,21.4,98.8,21.5ZM169.8,21.3L168.9,21L173.5,5.7C173.8,5.8,174.2,5.9,174.5,6L169.8,21.3ZM102.3,20.4L98,5L99,4.7L103.2,20.1L102.3,20.4ZM166.2,20.3L165.3,20.1L169.4,4.6C169.7,4.7,170.1,4.8,170.4,4.9L166.2,20.3ZM106,19.5L102.2,4C102.5,3.9,102.9,3.8,103.2,3.7L106.9,19.3L106,19.5ZM162.6,19.3L161.7,19.1L165.4,3.5L166.4,3.7L162.6,19.3ZM109.6,18.6L106.3,3L107.3,2.8L110.5,18.5L109.6,18.6ZM158.9,18.5L158,18.3L161.1,2.6C161.5,2.7,161.8,2.7,162.2,2.8L158.9,18.5ZM113.3,17.9L110.4,2.2C110.8,2.1,111.1,2.1,111.5,2L114.2,17.8L113.3,17.9ZM155.2,17.8L154.3,17.6L157,1.9L158,2.1L155.2,17.8ZM117,17.3L114.7,1.5L115.8,1.3L118,17.1L117,17.3ZM151.5,17.2L150.6,17.1L152.8,1.2L153.9,1.3L151.5,17.2ZM120.7,16.8L118.9,0.9L119.9,0.8L121.6,16.7L120.7,16.8ZM147.8,16.7L146.9,16.6L148.5,0.7L149.6,0.8L147.8,16.7ZM124.4,16.4L123,0.5L124.1,0.4L125.3,16.4L124.4,16.4ZM144.1,16.4L143.2,16.3L144.4,0.3L145.4,0.4L144.1,16.4ZM128.2,16.2L127.4,0.2L128.5,0.1L129.2,16.1L128.2,16.2ZM140.3,16.1L139.4,16.1L140.1,0.1L141.2,0.1L140.3,16.1ZM131.9,16L131.6,0L132.6,0L132.8,16L131.9,16ZM136.6,16L135.7,16L135.8,0L136.9,0L136.6,16Z" fill="#E6E6E6" transform="translate(5.71202,5.00002)"/>
        </mask>
    </defs>
    <g id="All" transform="translate(200,200) translate(-160.65,-160.45)">
        <g id="Gauge" transform="translate(161.528,160.45) translate(-139.469,-134.757)">
            <g id="Red-Gauge" transform="translate(75.7702,136.247) translate(-134.5,-134.5)">
                <g id="Color" transform="translate(197.372,133.016) translate(0.18089,-135.02)">
                    <g id="Mask" mask="url(#Mask-1)" transform="translate(-0.898624,135.014) translate(-139.5,-139.5)">
                        <path id="gray" class="st0" d="M134.6,269L133.8,269L133.9,253L134.6,253L134.9,253L134.9,269L134.6,269ZM138,268.9L137.6,252.9L138.5,252.9L139,268.9L138,268.9ZM130.5,268.9L129.4,268.9L130,252.9L130.9,252.9L130.5,268.9ZM142.2,268.8L141.3,252.8L142.2,252.7L143.2,268.7L142.2,268.8ZM126.3,268.7L125.3,268.6L126.4,252.6L127.4,252.7L126.3,268.7ZM146.5,268.5L145.1,252.6L146,252.5L147.5,268.4L146.5,268.5ZM122.1,268.4L121,268.3L122.6,252.4L123.5,252.5L122.1,268.4ZM150.7,268L148.8,252.1L149.7,252L151.7,267.9L150.7,268ZM117.8,268L116.7,267.9L118.8,252L119.7,252.1L117.8,268ZM154.9,267.5L152.5,251.7L153.4,251.6L155.9,267.4L154.9,267.5ZM113.6,267.4L112.6,267.2L115.2,251.4L116.1,251.6L113.6,267.4ZM159.1,266.7L156.2,251L157.1,250.8L160.1,266.5L159.1,266.7ZM109.4,266.7L108.3,266.5L111.4,250.8L112.3,251L109.4,266.7ZM163.3,265.9L159.9,250.3L160.8,250.1L164.3,265.7L163.3,265.9ZM105.3,265.8C104.9,265.7,104.6,265.6,104.3,265.6L107.9,250L108.8,250.2L105.3,265.8ZM167.4,264.9L163.5,249.4L164.4,249.2L168.4,264.7C168.1,264.8,167.7,264.9,167.4,264.9ZM101.1,264.8C100.8,264.7,100.4,264.6,100.1,264.5L104.2,249L105.1,249.2L101.1,264.8ZM171.5,263.8L167.1,248.4L168,248.1L172.5,263.5L171.5,263.8ZM97,263.7L96,263.4L100.6,248.1L101.5,248.4L97,263.7ZM175.6,262.6L170.7,247.4L171.6,247.1L176.6,262.3L175.6,262.6ZM93,262.5L92,262.2L97,247L97.9,247.3L93,262.5ZM179.6,261.2L174.3,246.1L175.2,245.8L180.7,260.8C180.3,261,179.9,261.1,179.6,261.2ZM88.9,261.1C88.6,261,88.2,260.9,87.9,260.7L93.5,245.7L94.4,246L88.9,261.1ZM183.6,259.8L177.8,244.9L178.7,244.6L184.7,259.4C184.3,259.5,183.9,259.6,183.6,259.8ZM84.9,259.6C84.6,259.5,84.2,259.3,83.9,259.2L89.9,244.4L90.8,244.7L84.9,259.6ZM187.5,258.1L181.2,243.4L182,243L188.5,257.6C188.2,257.9,187.9,258,187.5,258.1ZM81,257.9L80,257.5L86.5,242.9L87.4,243.3L81,257.9ZM191.4,256.4L184.6,241.9L185.5,241.5L192.4,255.9L191.4,256.4ZM77.1,256.2C76.8,256,76.4,255.9,76.1,255.7L83.1,241.3C83.4,241.4,83.6,241.6,83.9,241.7L77.1,256.2ZM195.2,254.5L188,240.2L188.8,239.8L196.1,254L195.2,254.5ZM73.3,254.3L72.3,253.8L79.7,239.6L80.5,240L73.3,254.3ZM199,252.6L191.3,238.6L192.1,238.1L199.9,252.1L199,252.6ZM69.5,252.3L68.6,251.8L76.4,237.8L77.2,238.3L69.5,252.3ZM202.7,250.5L194.6,236.7L195.4,236.2L203.6,249.9L202.7,250.5ZM65.8,250.2L64.9,249.7L73.2,236L74,236.5L65.8,250.2ZM206.3,248.3L197.7,234.8L198.5,234.3L207.1,247.8L206.3,248.3ZM62.2,247.9L61.3,247.3L70,233.9L70.8,234.4L62.2,247.9ZM209.8,245.9L200.8,232.7L201.6,232.2L210.7,245.4L209.8,245.9ZM58.6,245.6L57.7,245L66.8,231.9L67.6,232.4L58.6,245.6ZM213.3,243.5L203.9,230.5L204.7,229.9L214.2,242.8L213.3,243.5ZM55.2,243.1L54.4,242.5L63.9,229.6L64.7,230.2L55.2,243.1ZM216.7,241L206.9,228.3L207.6,227.7L217.5,240.3C217.3,240.5,217,240.7,216.7,241ZM51.8,240.6C51.5,240.4,51.2,240.2,51,239.9L61,227.4L61.7,228L51.8,240.6ZM220,238.3L209.8,226L210.5,225.4L220.8,237.7L220,238.3ZM48.5,237.9L47.7,237.2L58,225L58.7,225.6L48.5,237.9ZM223.3,235.6L212.7,223.6L213.4,223L224.1,234.9L223.3,235.6ZM45.2,235.1L44.4,234.4L55.1,222.5L55.8,223.1L45.2,235.1ZM226.4,232.7L215.5,221L216.2,220.4L227.2,232L226.4,232.7ZM42.1,232.2C41.8,232,41.6,231.7,41.3,231.5L52.4,220L53.1,220.6L42.1,232.2ZM229.4,229.8L218.1,218.4L218.7,217.8L230.1,229C229.9,229.3,229.7,229.5,229.4,229.8ZM39.1,229.3L38.4,228.5L49.8,217.3L50.5,218L39.1,229.3ZM232.4,226.7L220.7,215.7L221.3,215L233,225.9L232.4,226.7ZM36.1,226.2L35.4,225.4L47.2,214.6L47.8,215.3L36.1,226.2ZM235.3,223.6L223.3,213C223.5,212.8,223.7,212.5,223.9,212.3L236,222.8C235.8,223,235.5,223.3,235.3,223.6ZM33.3,223.1L32.6,222.3L44.7,211.9L45.3,212.6L33.3,223.1ZM238,220.3L225.7,210.1L226.3,209.4L238.7,219.5L238,220.3ZM30.5,219.8C30.3,219.5,30,219.2,29.8,219L42.3,209C42.5,209.2,42.7,209.5,42.9,209.7L30.5,219.8ZM240.7,217L228.1,207.2L228.7,206.5L241.4,216.2L240.7,217ZM27.9,216.5L27.3,215.7L40,206L40.6,206.7L27.9,216.5ZM243.3,213.6L230.4,204.2L230.9,203.4L243.9,212.7L243.3,213.6ZM25.3,213.1L24.7,212.2L37.7,202.9L38.2,203.7L25.3,213.1ZM245.7,210.1L232.5,201.1L233,200.3L246.3,209.2L245.7,210.1ZM22.9,209.6C22.7,209.3,22.5,209,22.3,208.7L35.6,199.9L36.1,200.7L22.9,209.6ZM248.1,206.6L234.6,198L235.1,197.2L248.7,205.7L248.1,206.6ZM20.6,206.1L20,205.2L33.6,196.8L34.1,197.6L20.6,206.1ZM250.3,203L236.5,194.8L237,194L250.8,202L250.3,203ZM18.4,202.4L17.9,201.5L31.8,193.5L32.3,194.3L18.4,202.4ZM252.4,199.3L238.4,191.6L238.8,190.8L252.9,198.4L252.4,199.3ZM16.3,198.7L15.8,197.8L29.9,190.3L30.3,191.1L16.3,198.7ZM254.4,195.5L240.1,188.2L240.5,187.4L254.8,194.6L254.4,195.5ZM14.3,195L13.8,194.1L28.1,187L28.5,187.8L14.3,195ZM256.3,191.7L241.8,184.9L242.2,184L256.7,190.7L256.3,191.7ZM12.5,191.2L12.1,190.2L26.7,183.6L27.1,184.4L12.5,191.2ZM258,187.8L243.3,181.5L243.7,180.6L258.4,186.8L258,187.8ZM10.8,187.3L10.4,186.3L25.2,180.1L25.6,180.9L10.8,187.3ZM259.7,183.8L244.8,177.9L245.1,177L260,182.7L259.7,183.8ZM9.2,183.4L8.8,182.4L23.8,176.7L24.1,177.6L9.2,183.4ZM261.2,179.8L246.1,174.4L246.4,173.5L261.5,178.8L261.2,179.8ZM7.7,179.4L7.3,178.4L22.4,173.2L22.7,174.1L7.7,179.4ZM262.5,175.8L247.3,170.9L247.6,170L262.9,174.8L262.5,175.8ZM6.3,175.4L6,174.4L21.3,169.7L21.6,170.6L6.3,175.4ZM263.8,171.7L248.4,167.3L248.7,166.4L264.1,170.7L263.8,171.7ZM5.1,171.3L4.8,170.3L20.2,166.1L20.5,167L5.1,171.3ZM264.9,167.6L249.4,163.7L249.6,162.8L265.1,166.6C265.1,166.9,265,167.3,264.9,167.6ZM4,167.2L3.7,166.2L19.3,162.5L19.5,163.4L4,167.2ZM265.9,163.5L250.3,160.1L250.5,159.2L266.2,162.5L265.9,163.5ZM3,163L2.8,162L18.5,158.8L18.7,159.7L3,163ZM266.7,159.3L251,156.4L251.2,155.5L267,158.3L266.7,159.3ZM2.2,158.9L2,157.8L17.8,155.1L18,156L2.2,158.9ZM267.4,155.1L251.6,152.7L251.7,151.8L267.5,154.1L267.4,155.1ZM1.5,154.7L1.3,153.7L17.1,151.5L17.2,152.4L1.5,154.7ZM268,150.9L252.1,149L252.2,148.1L268.1,149.9L268,150.9ZM0.9,150.4L0.8,149.3L16.7,147.5L16.8,148.4L0.9,150.4ZM268.5,146.7L252.6,145.3L252.7,144.4L268.6,145.7L268.5,146.7ZM0.5,146.2L0.4,145.1L16.4,143.9L16.5,144.8L0.5,146.2ZM268.8,142.4L252.8,141.5L252.9,140.6L268.9,141.4L268.8,142.4ZM0.2,142L0.1,140.9L16.1,140.1L16.1,141L0.2,142ZM269,138.2L253,137.8L253,136.9L269,137.2L269,138.2ZM0,137.7L0,136.6L16,136.3L16,137.2L0,137.7ZM15.933,134.18L-0.0921839,134.174L-0.0921839,133.074L15.9078,133.174L15.9078,134.174ZM253,134L253,133.1L269,132.9L269,134L253,134ZM16.1,130.7L0.1,130.2L0.1,129.1L16.1,129.7L16.1,130.7ZM252.9,130.3L252.9,129.4L268.9,128.7L268.9,129.8L252.9,130.3ZM16.2,127L0.2,126L0.3,124.9L16.3,126L16.2,127ZM252.7,126.5L252.6,125.6L268.6,124.4L268.7,125.5L252.7,126.5ZM16.5,123.3L0.6,121.8L0.7,120.7L16.6,122.3L16.5,123.3ZM252.4,122.8L252.3,121.9L268.2,120.2L268.3,121.3L252.4,122.8ZM16.9,119.5L1,117.5L1.1,116.4L17,118.5L16.9,119.5ZM252,119.1L251.9,118.2L267.8,116L267.9,117.1L252,119.1ZM17.5,115.8L1.7,113.3L1.9,112.3L17.7,114.9L17.5,115.8ZM251.5,115.4L251.3,114.5L267.1,111.8L267.3,112.9L251.5,115.4ZM18.1,112.1L2.4,109.1L2.6,108.1L18.3,111.2L18.1,112.1ZM250.8,111.7L250.6,110.8L266.3,107.6L266.5,108.6L250.8,111.7ZM18.9,108.5L3.3,105L3.5,104L19.1,107.6L18.9,108.5ZM250,108L249.8,107.1L265.4,103.4L265.6,104.4L250,108ZM19.7,104.8L4.2,100.8C4.3,100.5,4.4,100.1,4.5,99.8L20,103.9L19.7,104.8ZM249.1,104.4L248.9,103.5L264.3,99.3L264.6,100.3L249.1,104.4ZM20.7,101.2L5.4,96.7C5.5,96.4,5.6,96,5.7,95.7L21,100.3L20.7,101.2ZM248.1,100.7L247.8,99.8L263.1,95.1C263.2,95.4,263.3,95.8,263.4,96.1L248.1,100.7ZM21.8,97.6L6.6,92.6L6.9,91.6L22.1,96.7L21.8,97.6ZM247,97.2L246.7,96.3L261.8,91.1L262.1,92.1L247,97.2ZM23.1,94.1L8,88.6L8.4,87.6L23.4,93.2L23.1,94.1ZM245.8,93.7L245.5,92.8L260.5,87.2L260.9,88.2L245.8,93.7ZM24.4,90.6L9.5,84.6L9.9,83.6L24.7,89.6L24.4,90.6ZM244.4,90.2L244,89.3L258.8,83.2L259.2,84.2L244.4,90.2ZM25.9,87.1L11.2,80.7L11.6,79.7L26.2,86.2L25.9,87.1ZM243,86.7L242.6,85.8L257.2,79.2L257.6,80.2L243,86.7ZM27.4,83.7L13,76.8L13.5,75.8L27.9,82.8L27.4,83.7ZM241.4,83.3L241,82.5L255.4,75.5L255.9,76.5L241.4,83.3ZM29.1,80.3L14.9,73L15.4,72.1L29.6,79.5L29.1,80.3ZM239.7,80L239.3,79.2L253.4,71.7L253.9,72.6L239.7,80ZM30.8,77L16.8,69.2L17.3,68.3L31.2,76.2L30.8,77ZM238,76.7L237.5,75.9L251.4,68L251.9,68.9L238,76.7ZM32.7,73.8L19,65.5L19.5,64.6L33.2,73L32.7,73.8ZM236.1,73.5L235.6,72.7L249.2,64.3L249.8,65.2L236.1,73.5ZM34.7,70.6L21.2,62C21.4,61.7,21.6,61.4,21.8,61.1L35.2,69.9L34.7,70.6ZM234.1,70.3L233.6,69.5L247,60.7L247.6,61.6L234.1,70.3ZM36.8,67.4L23.6,58.3C23.8,58,24,57.7,24.2,57.4L37.3,66.6L36.8,67.4ZM232,67.2L231.5,66.4L244.6,57.2L245.2,58.1L232,67.2ZM38.9,64.4L26,54.9L26.6,54.1L39.5,63.6L38.9,64.4ZM229.9,64.2L229.3,63.4L242.1,53.8L242.7,54.6L229.9,64.2ZM41.2,61.4L28.6,51.5L29.3,50.7L41.8,60.7L41.2,61.4ZM227.6,61.2L227,60.5L239.5,50.5L240.2,51.3L227.6,61.2ZM43.6,58.5L31.3,48.2C31.5,47.9,31.8,47.7,32,47.4L44.2,57.8L43.6,58.5ZM225.2,58.3L224.6,57.6L236.8,47.2C237,47.5,237.3,47.7,237.5,48L225.2,58.3ZM46,55.7L34.1,45C34.3,44.7,34.6,44.5,34.8,44.2L46.6,55C46.4,55.2,46.2,55.4,46,55.7ZM222.8,55.4L222.2,54.7L234,44L234.7,44.8L222.8,55.4ZM48.6,52.9L37,41.9L37.7,41.1L49.2,52.2L48.6,52.9ZM220.2,52.7L219.6,52L231.1,40.9L231.8,41.7L220.2,52.7ZM51.2,50.2L39.9,38.8C40.2,38.5,40.4,38.3,40.7,38L51.8,49.5L51.2,50.2ZM217.6,50L216.9,49.4L228,37.9C228.3,38.1,228.5,38.4,228.8,38.7L217.6,50ZM53.9,47.6L43,35.9L43.8,35.2L54.6,47L53.9,47.6ZM214.9,47.4L214.2,46.8L225,35L225.8,35.7L214.9,47.4ZM56.7,45.1L46.2,33.1L47,32.4L57.4,44.5L56.7,45.1ZM212.1,44.9L211.4,44.3L221.8,32.1L222.6,32.8L212.1,44.9ZM59.5,42.7L49.4,30.3C49.7,30.1,50,29.8,50.2,29.6L60.2,42.1L59.5,42.7ZM209.2,42.5L208.5,41.9L218.5,29.4C218.8,29.6,219.1,29.8,219.3,30.1L209.2,42.5ZM62.5,40.4L52.8,27.7L53.6,27.1L63.3,39.9L62.5,40.4ZM206.3,40.2L205.6,39.6L215.2,26.8L216.1,27.4L206.3,40.2ZM65.5,38.2L56.2,25.2C56.5,25,56.8,24.8,57.1,24.6L66.3,37.7L65.5,38.2ZM203.3,38L202.5,37.5L211.7,24.4C212,24.6,212.3,24.8,212.6,25L203.3,38ZM68.6,36L59.7,22.7C60,22.5,60.3,22.3,60.6,22.1L69.4,35.5L68.6,36ZM200.2,35.8L199.4,35.3L208.2,21.9L209.1,22.5L200.2,35.8ZM71.7,34L63.2,20.4C63.5,20.2,63.8,20,64.1,19.8L72.5,33.4L71.7,34ZM197,33.8L196.2,33.3L204.5,19.6C204.8,19.8,205.1,20,205.4,20.2L197,33.8ZM74.9,32.1L66.9,18.3L67.8,17.8L75.8,31.7L74.9,32.1ZM193.8,31.9L193,31.4L200.9,17.5L201.8,18L193.8,31.9ZM78.1,30.2L70.5,16.1L71.4,15.6L79,29.8L78.1,30.2ZM190.5,30.1L189.6,29.6L197.1,15.5L198,16L190.5,30.1ZM81.5,28.5L74.3,14.2L75.2,13.7L82.3,28L81.5,28.5ZM187.2,28.3L186.4,27.9L193.4,13.5L194.4,14L187.2,28.3ZM84.8,26.9L78.1,12.4C78.4,12.2,78.8,12.1,79.1,12L85.7,26.6L84.8,26.9ZM183.8,26.7L183,26.3L189.5,11.7C189.8,11.8,190.2,12,190.5,12.1L183.8,26.7ZM88.2,25.4L82,10.6C82.3,10.5,82.7,10.3,83,10.2L89.1,25C88.8,25.1,88.5,25.2,88.2,25.4ZM180.3,25.2C180,25.1,179.7,25,179.5,24.9L185.6,10.1C185.9,10.2,186.3,10.4,186.6,10.5L180.3,25.2ZM91.7,24L85.9,9L86.9,8.6L92.6,23.6L91.7,24ZM176.9,23.8L176,23.5L181.6,8.5C181.9,8.6,182.3,8.8,182.6,8.9L176.9,23.8ZM95.2,22.7L89.9,7.6L90.9,7.3L96.1,22.4L95.2,22.7ZM173.4,22.5L172.5,22.2L177.6,7L178.6,7.3L173.4,22.5ZM98.8,21.5L93.9,6.2C94.2,6.1,94.6,6,94.9,5.9L99.5,21.2C99.3,21.3,99,21.4,98.8,21.5ZM169.8,21.3L168.9,21L173.5,5.7C173.8,5.8,174.2,5.9,174.5,6L169.8,21.3ZM102.3,20.4L98,5L99,4.7L103.2,20.1L102.3,20.4ZM166.2,20.3L165.3,20.1L169.4,4.6C169.7,4.7,170.1,4.8,170.4,4.9L166.2,20.3ZM106,19.5L102.2,4C102.5,3.9,102.9,3.8,103.2,3.7L106.9,19.3L106,19.5ZM162.6,19.3L161.7,19.1L165.4,3.5L166.4,3.7L162.6,19.3ZM109.6,18.6L106.3,3L107.3,2.8L110.5,18.5L109.6,18.6ZM158.9,18.5L158,18.3L161.1,2.6C161.5,2.7,161.8,2.7,162.2,2.8L158.9,18.5ZM113.3,17.9L110.4,2.2C110.8,2.1,111.1,2.1,111.5,2L114.2,17.8L113.3,17.9ZM155.2,17.8L154.3,17.6L157,1.9L158,2.1L155.2,17.8ZM117,17.3L114.7,1.5L115.8,1.3L118,17.1L117,17.3ZM151.5,17.2L150.6,17.1L152.8,1.2L153.9,1.3L151.5,17.2ZM120.7,16.8L118.9,0.9L119.9,0.8L121.6,16.7L120.7,16.8ZM147.8,16.7L146.9,16.6L148.5,0.7L149.6,0.8L147.8,16.7ZM124.4,16.4L123,0.5L124.1,0.4L125.3,16.4L124.4,16.4ZM144.1,16.4L143.2,16.3L144.4,0.3L145.4,0.4L144.1,16.4ZM128.2,16.2L127.4,0.2L128.5,0.1L129.2,16.1L128.2,16.2ZM140.3,16.1L139.4,16.1L140.1,0.1L141.2,0.1L140.3,16.1ZM131.9,16L131.6,0L132.6,0L132.8,16L131.9,16ZM136.6,16L135.7,16L135.8,0L136.9,0L136.6,16Z" fill="#E6E6E6" transform="translate(5.71205,5)"/>
                        <path id="Red" fill="none" stroke="#ff4a6b" stroke-width="19" d="M126.392,0C126.392,69.8043,69.8043,126.392,0,126.392C-69.8043,126.392,-126.392,69.8043,-126.392,0C-126.392,-69.8043,-69.8043,-126.392,0,-126.392C69.8043,-126.392,126.392,-69.8043,126.392,0Z" stroke-dashoffset="800" stroke-dasharray="800 800" opacity="1" transform="translate(145.218,139.5) translate(-5.53658,0)"/>
                        <path id="Gray" fill="none" stroke="#e6e6e6" stroke-width="19" d="M126.392,0C126.392,69.8043,69.8043,126.392,0,126.392C-69.8043,126.392,-126.392,69.8043,-126.392,0C-126.392,-69.8043,-69.8043,-126.392,0,-126.392C69.8043,-126.392,126.392,-69.8043,126.392,0Z" stroke-dashoffset="800" stroke-dasharray="800 800" opacity="0" transform="translate(145.218,139.5) translate(-5.53658,0)"/>
                    </g>
                </g>
                <g id="Indicator" transform="translate(197.296,133.005) rotate(-50.75) translate(-134.499,-134.499)">
                    <path id="Arrow" class="st0" d="M223.9,245.2L225,246.5L223.3,246.8L221.7,247L222.3,245.5L222.9,243.9Z" fill="#FF4A6B"/>
                    <rect id="Rect" class="st0" width="1.2" height="25.7" fill="#FF4A6B" transform="translate(-100.129,194.139) rotate(-39.7542) scale(1.00001,1.00001) translate(217.8,222.7)"/>
                </g>
            </g>
        </g>
        <g id="Dots" transform="translate(160.65,160.45) translate(-160.65,-160.45)">
            <path class="st0" d="M156.7,320.4C156.7,320.1,156.9,319.9,157.2,319.9L157.2,319.9C157.5,319.9,157.7,320.1,157.7,320.4L157.7,320.4C157.7,320.7,157.5,320.9,157.2,320.9L157.2,320.9L157.2,320.9L157.2,320.9C156.9,320.9,156.6,320.7,156.7,320.4Z" fill="#a3a3a3"/>
            <path class="st0" d="M164.2,320.4C164.2,320.1,164.4,319.9,164.7,319.9L164.7,319.9C165,319.9,165.2,320.1,165.2,320.4L165.2,320.4C165.2,320.7,165,320.9,164.7,320.9L164.7,320.9L164.7,320.9L164.7,320.9C164.4,320.9,164.2,320.7,164.2,320.4Z" fill="#a3a3a3"/>
            <path class="st0" d="M149.6,320.6C149.3,320.6,149.1,320.4,149.1,320.1L149.1,320.1C149.1,319.8,149.4,319.6,149.6,319.6L149.6,319.6C149.9,319.6,150.1,319.9,150.1,320.1L150.1,320.1C150.1,320.4,149.9,320.6,149.6,320.6L149.6,320.6C149.7,320.6,149.6,320.6,149.6,320.6Z" fill="#a3a3a3"/>
            <path class="st0" d="M171.6,320.1C171.6,319.8,171.8,319.6,172.1,319.6L172.1,319.6C172.4,319.6,172.6,319.8,172.6,320.1L172.6,320.1C172.6,320.4,172.4,320.6,172.1,320.6L172.1,320.6L172.1,320.6L172.1,320.6C172.1,320.6,172.1,320.6,172.1,320.6L172.1,320.6C171.9,320.6,171.7,320.3,171.6,320.1Z" fill="#a3a3a3"/>
            <path class="st0" d="M142.1,319.9C141.8,319.9,141.6,319.6,141.7,319.3L141.7,319.3C141.7,319,142,318.8,142.3,318.9L142.3,318.9C142.6,318.9,142.8,319.2,142.7,319.5L142.7,319.5C142.7,319.8,142.5,319.9,142.1,319.9L142.1,319.9C142.2,319.9,142.2,319.9,142.1,319.9Z" fill="#a3a3a3"/>
            <path class="st0" d="M179.1,319.4C179.1,319.1,179.3,318.9,179.5,318.8L179.5,318.8C179.8,318.8,180,319,180.1,319.2L180.1,319.2C180.1,319.5,179.9,319.7,179.7,319.7L179.7,319.7C179.7,319.7,179.7,319.7,179.6,319.7L179.6,319.7C179.4,319.8,179.1,319.7,179.1,319.4Z" fill="#a3a3a3"/>
            <path class="st0" d="M134.7,318.9C134.4,318.9,134.2,318.6,134.3,318.3L134.3,318.3C134.3,318,134.6,317.8,134.9,317.9L134.9,317.9C135.2,317.9,135.4,318.2,135.3,318.5L135.3,318.5C135.2,318.7,135,318.9,134.7,318.9L134.7,318.9C134.8,318.9,134.7,318.9,134.7,318.9Z" fill="#a3a3a3"/>
            <path class="st0" d="M186.5,318.4C186.5,318.1,186.6,317.9,186.9,317.8L186.9,317.8C187.2,317.8,187.4,317.9,187.5,318.2L187.5,318.2C187.5,318.5,187.4,318.7,187.1,318.8L187.1,318.8L187.1,318.8L187.1,318.8C187.1,318.8,187.1,318.8,187,318.8L187,318.8C186.8,318.8,186.6,318.6,186.5,318.4Z" fill="#a3a3a3"/>
            <path class="st0" d="M127.3,317.5C127,317.4,126.9,317.2,126.9,316.9L126.9,316.9C127,316.6,127.2,316.5,127.5,316.5L127.5,316.5C127.8,316.6,127.9,316.8,127.9,317.1L127.9,317.1C127.9,317.3,127.6,317.5,127.4,317.5L127.4,317.5C127.4,317.5,127.3,317.5,127.3,317.5Z" fill="#a3a3a3"/>
            <path class="st0" d="M193.9,317C193.8,316.7,194,316.5,194.3,316.4L194.3,316.4C194.6,316.3,194.8,316.5,194.9,316.8L194.9,316.8C195,317.1,194.8,317.3,194.5,317.4L194.5,317.4C194.5,317.4,194.4,317.4,194.4,317.4L194.4,317.4C194.2,317.4,194,317.2,193.9,317Z" fill="#a3a3a3"/>
            <path class="st0" d="M120,315.8C120,315.8,120,315.8,120,315.8L120,315.8C119.7,315.7,119.6,315.5,119.6,315.2L119.6,315.2C119.7,314.9,120,314.8,120.2,314.8L120.2,314.8C120.5,314.9,120.6,315.1,120.6,315.4L120.6,315.4C120.5,315.6,120.3,315.8,120.1,315.8L120.1,315.8C120.1,315.8,120,315.8,120,315.8Z" fill="#a3a3a3"/>
            <path class="st0" d="M201.2,315.2C201.1,314.9,201.3,314.7,201.6,314.6L201.6,314.6C201.9,314.5,202.1,314.7,202.2,315L202.2,315C202.3,315.3,202.1,315.5,201.8,315.6L201.8,315.6C201.8,315.6,201.7,315.6,201.7,315.6L201.7,315.6C201.5,315.6,201.3,315.5,201.2,315.2Z" fill="#a3a3a3"/>
            <path class="st0" d="M112.8,313.8L112.8,313.8L112.8,313.8C112.5,313.7,112.4,313.4,112.5,313.2L112.5,313.2C112.6,312.9,112.9,312.8,113.1,312.9L113.1,312.9C113.4,313,113.5,313.3,113.4,313.5L113.4,313.5C113.3,313.7,113.1,313.8,112.9,313.8L112.9,313.8C112.9,313.8,112.8,313.8,112.8,313.8Z" fill="#a3a3a3"/>
            <path class="st0" d="M208.4,313.2C208.3,312.9,208.5,312.7,208.7,312.6L208.7,312.6C209,312.5,209.2,312.7,209.3,312.9L209.3,312.9C209.4,313.2,209.2,313.4,209,313.5L209,313.5C208.9,313.5,208.9,313.5,208.8,313.5L208.8,313.5C208.7,313.5,208.5,313.4,208.4,313.2Z" fill="#a3a3a3"/>
            <path class="st0" d="M105.6,311.3C105.3,311.2,105.2,310.9,105.3,310.7L105.3,310.7C105.4,310.4,105.7,310.3,105.9,310.4L105.9,310.4C106.2,310.5,106.3,310.8,106.2,311L106.2,311C106.1,311.2,105.9,311.3,105.7,311.3L105.7,311.3C105.7,311.4,105.7,311.4,105.6,311.3Z" fill="#a3a3a3"/>
            <path class="st0" d="M215.5,310.8C215.4,310.5,215.5,310.3,215.8,310.2L215.8,310.2C216.1,310.1,216.4,310.2,216.4,310.5L216.4,310.5C216.5,310.8,216.4,311,216.1,311.1L216.1,311.1C216,311.1,216,311.1,215.9,311.1L215.9,311.1C215.8,311.1,215.6,311,215.5,310.8Z" fill="#a3a3a3"/>
            <path class="st0" d="M98.6,308.6C98.3,308.5,98.2,308.2,98.3,307.9L98.3,307.9C98.4,307.7,98.7,307.5,99,307.6L99,307.6C99.3,307.7,99.4,308,99.3,308.3L99.3,308.3C99.2,308.5,99,308.6,98.8,308.6L98.8,308.6C98.7,308.6,98.6,308.6,98.6,308.6Z" fill="#a3a3a3"/>
            <path class="st0" d="M222.5,308C222.4,307.7,222.5,307.5,222.8,307.3L222.8,307.3C223,307.2,223.4,307.3,223.5,307.6L223.5,307.6C223.6,307.9,223.5,308.1,223.2,308.3L223.2,308.3L223.2,308.3L223.2,308.3C223.1,308.3,223.1,308.3,223,308.3L223,308.3C222.7,308.3,222.5,308.2,222.5,308Z" fill="#a3a3a3"/>
            <path class="st0" d="M91.7,305.5L91.7,305.5L91.7,305.5C91.5,305.4,91.3,305.1,91.5,304.8L91.5,304.8C91.6,304.6,91.9,304.4,92.2,304.6L92.2,304.6C92.4,304.7,92.6,305,92.4,305.3L92.4,305.3C92.3,305.5,92.1,305.6,91.9,305.6L91.9,305.6C91.9,305.6,91.8,305.6,91.7,305.5Z" fill="#a3a3a3"/>
            <path class="st0" d="M229.3,305C229.2,304.8,229.3,304.5,229.5,304.3L229.5,304.3C229.7,304.2,230,304.3,230.2,304.5L230.2,304.5C230.3,304.7,230.2,305,230,305.2L230,305.2L230,305.2L230,305.2C229.9,305.2,229.9,305.2,229.8,305.2L229.8,305.2C229.6,305.3,229.4,305.2,229.3,305Z" fill="#a3a3a3"/>
            <path class="st0" d="M85,302.1L85,302.1L85,302.1C84.8,302,84.7,301.7,84.8,301.4L84.8,301.4C84.9,301.2,85.2,301.1,85.5,301.2L85.5,301.2C85.7,301.3,85.8,301.6,85.7,301.9L85.7,301.9C85.6,302.1,85.4,302.2,85.2,302.2L85.2,302.2C85.1,302.2,85,302.2,85,302.1Z" fill="#a3a3a3"/>
            <path class="st0" d="M236,301.6C235.9,301.4,236,301.1,236.2,300.9L236.2,300.9C236.4,300.8,236.8,300.9,236.9,301.1L236.9,301.1C237,301.3,236.9,301.6,236.7,301.8L236.7,301.8C236.6,301.8,236.5,301.9,236.5,301.9L236.5,301.9C236.2,301.9,236.1,301.8,236,301.6Z" fill="#a3a3a3"/>
            <path class="st0" d="M78.4,298.4C78.4,298.4,78.4,298.4,78.4,298.4L78.4,298.4C78.2,298.3,78.1,297.9,78.2,297.7L78.2,297.7C78.3,297.5,78.7,297.4,78.9,297.5L78.9,297.5C79.1,297.6,79.2,297.9,79.1,298.2L79.1,298.2C79,298.4,78.8,298.4,78.7,298.4L78.7,298.4C78.6,298.5,78.5,298.5,78.4,298.4Z" fill="#a3a3a3"/>
            <path class="st0" d="M242.5,297.9C242.4,297.7,242.4,297.4,242.7,297.2L242.7,297.2C242.9,297.1,243.3,297.1,243.4,297.4L243.4,297.4C243.5,297.6,243.5,297.9,243.2,298.1L243.2,298.1C243.1,298.1,243,298.2,242.9,298.2L242.9,298.2C242.7,298.2,242.6,298.1,242.5,297.9Z" fill="#a3a3a3"/>
            <path class="st0" d="M72,294.4C71.8,294.3,71.7,293.9,71.9,293.7L71.9,293.7C72,293.5,72.4,293.4,72.6,293.6L72.6,293.6C72.8,293.7,72.9,294.1,72.7,294.3L72.7,294.3C72.6,294.5,72.5,294.5,72.3,294.5L72.3,294.5C72.2,294.5,72.1,294.5,72,294.4Z" fill="#a3a3a3"/>
            <path class="st0" d="M248.8,293.9C248.7,293.7,248.7,293.4,248.9,293.2L248.9,293.2C249.1,293,249.4,293.1,249.6,293.3L249.6,293.3C249.7,293.5,249.7,293.8,249.5,294L249.5,294C249.4,294.1,249.3,294.1,249.2,294.1L249.2,294.1C249.1,294.1,248.9,294.1,248.8,293.9Z" fill="#a3a3a3"/>
            <path class="st0" d="M65.9,290.1L65.9,290.1L65.9,290.1C65.7,289.9,65.6,289.6,65.8,289.4L65.8,289.4C66,289.2,66.3,289.1,66.5,289.3L66.5,289.3C66.7,289.5,66.8,289.8,66.6,290L66.6,290C66.5,290.1,66.4,290.2,66.2,290.2L66.2,290.2C66.1,290.2,66,290.2,65.9,290.1Z" fill="#a3a3a3"/>
            <path class="st0" d="M255,289.6C254.8,289.4,254.9,289.1,255.1,288.9L255.1,288.9C255.3,288.7,255.6,288.8,255.8,289L255.8,289C256,289.2,255.9,289.5,255.7,289.7L255.7,289.7C255.6,289.8,255.5,289.8,255.4,289.8L255.4,289.8C255.2,289.8,255.1,289.8,255,289.6Z" fill="#a3a3a3"/>
            <path class="st0" d="M59.9,285.5L59.9,285.5L59.9,285.5C59.7,285.3,59.7,285,59.8,284.8L59.8,284.8C60,284.6,60.3,284.6,60.5,284.7L60.5,284.7C60.7,284.9,60.7,285.2,60.6,285.4L60.6,285.4C60.5,285.5,60.4,285.6,60.2,285.6L60.2,285.6C60.1,285.6,60,285.6,59.9,285.5Z" fill="#a3a3a3"/>
            <path class="st0" d="M260.9,285.1C260.7,284.9,260.8,284.6,261,284.4L261,284.4C261.2,284.2,261.5,284.3,261.7,284.5L261.7,284.5C261.9,284.7,261.8,285,261.6,285.2L261.6,285.2C261.6,285.2,261.6,285.2,261.6,285.2L261.6,285.2C261.5,285.3,261.4,285.3,261.3,285.3L261.3,285.3C261.1,285.2,261,285.2,260.9,285.1Z" fill="#a3a3a3"/>
            <path class="st0" d="M54.1,280.7C53.9,280.5,53.9,280.2,54.1,280L54.1,280C54.3,279.8,54.6,279.8,54.8,280L54.8,280C55,280.2,55,280.5,54.8,280.7L54.8,280.7C54.7,280.8,54.6,280.9,54.4,280.9L54.4,280.9C54.4,280.8,54.2,280.8,54.1,280.7Z" fill="#a3a3a3"/>
            <path class="st0" d="M266.6,280.2C266.4,280,266.4,279.7,266.6,279.5L266.6,279.5C266.8,279.3,267.1,279.3,267.3,279.5L267.3,279.5C267.5,279.7,267.5,280,267.3,280.2L267.3,280.2C267.2,280.3,267.1,280.3,267,280.3L267,280.3C266.9,280.4,266.7,280.3,266.6,280.2Z" fill="#a3a3a3"/>
            <path class="st0" d="M48.6,275.6L48.6,275.6L48.6,275.6C48.4,275.4,48.4,275.1,48.6,274.9L48.6,274.9C48.8,274.7,49.1,274.7,49.3,274.9L49.3,274.9C49.5,275.1,49.5,275.4,49.3,275.6L49.3,275.6C49.2,275.7,49.1,275.7,48.9,275.7L48.9,275.7C48.9,275.7,48.7,275.7,48.6,275.6Z" fill="#a3a3a3"/>
            <path class="st0" d="M272.1,275.1C271.9,274.9,271.9,274.6,272.1,274.4L272.1,274.4C272.3,274.2,272.6,274.2,272.8,274.4L272.8,274.4C273,274.6,273,274.9,272.8,275.1L272.8,275.1L272.8,275.1L272.8,275.1C272.7,275.2,272.6,275.2,272.5,275.2L272.5,275.2C272.3,275.3,272.2,275.2,272.1,275.1Z" fill="#a3a3a3"/>
            <path class="st0" d="M43.4,270.2C43.2,270,43.2,269.7,43.4,269.5L43.4,269.5C43.6,269.3,43.9,269.3,44.1,269.5L44.1,269.5C44.3,269.7,44.3,270,44.1,270.2L44.1,270.2C44,270.3,43.9,270.3,43.8,270.3L43.8,270.3C43.6,270.4,43.5,270.3,43.4,270.2Z" fill="#a3a3a3"/>
            <path class="st0" d="M277.4,269.8C277.2,269.6,277.2,269.3,277.4,269.1L277.4,269.1C277.6,268.9,277.9,268.9,278.1,269.1L278.1,269.1C278.3,269.3,278.3,269.6,278.1,269.8L278.1,269.8C278,269.9,277.9,270,277.7,270L277.7,270C277.6,269.9,277.5,269.9,277.4,269.8Z" fill="#a3a3a3"/>
            <path class="st0" d="M38.4,264.6C38.2,264.4,38.2,264.1,38.5,263.9L38.5,263.9C38.7,263.7,39,263.7,39.2,263.9L39.2,263.9C39.4,264.1,39.3,264.4,39.1,264.6L39.1,264.6C39,264.7,38.9,264.7,38.8,264.7L38.8,264.7C38.6,264.8,38.5,264.7,38.4,264.6Z" fill="#a3a3a3"/>
            <path class="st0" d="M282.4,264.2C282.2,264,282.2,263.7,282.3,263.5L282.3,263.5C282.5,263.3,282.8,263.3,283,263.4L283,263.4C283.2,263.6,283.2,263.9,283.1,264.1L283.1,264.1L283.1,264.1L283.1,264.1C283,264.2,282.9,264.3,282.7,264.3L282.7,264.3C282.6,264.3,282.5,264.2,282.4,264.2Z" fill="#a3a3a3"/>
            <path class="st0" d="M33.6,258.8C33.4,258.6,33.5,258.3,33.7,258.1L33.7,258.1C33.9,257.9,34.2,258,34.4,258.2L34.4,258.2C34.6,258.4,34.5,258.7,34.3,258.9L34.3,258.9C34.2,259,34.1,259,34,259L34,259C33.9,259,33.7,258.9,33.6,258.8Z" fill="#a3a3a3"/>
            <path class="st0" d="M287.1,258.3C286.9,258.1,286.8,257.8,287,257.6L287,257.6C287.2,257.4,287.5,257.3,287.7,257.5L287.7,257.5C287.9,257.7,288,258,287.8,258.2L287.8,258.2C287.7,258.3,287.6,258.4,287.4,258.4L287.4,258.4C287.3,258.4,287.2,258.4,287.1,258.3Z" fill="#a3a3a3"/>
            <path class="st0" d="M29.1,252.7L29.1,252.7L29.1,252.7C28.9,252.5,29,252.2,29.2,252L29.2,252C29.4,251.8,29.7,251.9,29.9,252.1L29.9,252.1C30.1,252.3,30,252.6,29.8,252.8L29.8,252.8C29.7,252.9,29.6,252.9,29.5,252.9L29.5,252.9C29.4,252.9,29.2,252.9,29.1,252.7Z" fill="#a3a3a3"/>
            <path class="st0" d="M291.5,252.3C291.3,252.1,291.2,251.8,291.4,251.6L291.4,251.6C291.5,251.4,291.9,251.3,292.1,251.5L292.1,251.5C292.3,251.7,292.4,252,292.2,252.2L292.2,252.2L292.2,252.2L292.2,252.2C292.1,252.3,291.9,252.4,291.8,252.4L291.8,252.4C291.7,252.4,291.6,252.4,291.5,252.3Z" fill="#a3a3a3"/>
            <path class="st0" d="M25,246.5C24.8,246.3,24.9,246,25.1,245.8L25.1,245.8C25.3,245.7,25.6,245.7,25.8,246L25.8,246C25.9,246.2,25.9,246.5,25.7,246.7L25.7,246.7C25.6,246.7,25.5,246.8,25.4,246.8L25.4,246.8C25.2,246.7,25.1,246.6,25,246.5Z" fill="#a3a3a3"/>
            <path class="st0" d="M295.7,246.1C295.5,246,295.4,245.6,295.5,245.4L295.5,245.4C295.7,245.2,296,245.1,296.2,245.2L296.2,245.2C296.4,245.4,296.5,245.7,296.4,245.9L296.4,245.9C296.3,246,296.1,246.1,296,246.1L296,246.1C295.9,246.1,295.8,246.1,295.7,246.1Z" fill="#a3a3a3"/>
            <path class="st0" d="M21.1,240C21,239.8,21,239.5,21.3,239.3L21.3,239.3C21.5,239.2,21.8,239.2,22,239.5L22,239.5C22.1,239.7,22.1,240,21.8,240.2L21.8,240.2C21.7,240.2,21.6,240.3,21.6,240.3L21.6,240.3C21.4,240.3,21.2,240.2,21.1,240Z" fill="#a3a3a3"/>
            <path class="st0" d="M299.6,239.6C299.4,239.5,299.3,239.2,299.4,238.9L299.4,238.9C299.5,238.7,299.8,238.6,300.1,238.7L300.1,238.7C300.3,238.8,300.4,239.2,300.3,239.4L300.3,239.4C300.3,239.4,300.3,239.4,300.3,239.4L300.3,239.4C300.2,239.6,300,239.7,299.9,239.7L299.9,239.7C299.7,239.7,299.7,239.7,299.6,239.6Z" fill="#a3a3a3"/>
            <path class="st0" d="M17.5,233.4C17.4,233.2,17.5,232.9,17.7,232.7L17.7,232.7C17.9,232.6,18.3,232.7,18.4,232.9L18.4,232.9C18.5,233.1,18.4,233.4,18.2,233.6L18.2,233.6C18.1,233.6,18.1,233.6,18,233.6L18,233.6C17.8,233.7,17.6,233.6,17.5,233.4Z" fill="#a3a3a3"/>
            <path class="st0" d="M303.1,233C302.9,232.9,302.8,232.6,302.9,232.3L302.9,232.3C303,232.1,303.3,231.9,303.6,232.1L303.6,232.1C303.8,232.2,304,232.5,303.8,232.8L303.8,232.8C303.7,233,303.5,233.1,303.4,233.1L303.4,233.1C303.3,233.1,303.2,233.1,303.1,233Z" fill="#a3a3a3"/>
            <path class="st0" d="M14.2,226.7C14.1,226.5,14.2,226.2,14.4,226L14.4,226C14.6,225.9,14.9,226,15.1,226.2L15.1,226.2C15.2,226.4,15.1,226.7,14.9,226.9L14.9,226.9C14.8,226.9,14.8,226.9,14.7,226.9L14.7,226.9C14.5,227,14.3,226.9,14.2,226.7Z" fill="#a3a3a3"/>
            <path class="st0" d="M306.4,226.3C306.1,226.2,306,225.9,306.1,225.6L306.1,225.6C306.2,225.4,306.5,225.2,306.8,225.4L306.8,225.4C307,225.5,307.2,225.8,307.1,226.1L307.1,226.1C307,226.3,306.8,226.4,306.6,226.4L306.6,226.4C306.5,226.3,306.5,226.3,306.4,226.3Z" fill="#a3a3a3"/>
            <path class="st0" d="M11.3,219.8L11.3,219.8L11.3,219.8C11.2,219.6,11.3,219.3,11.6,219.2L11.6,219.2C11.9,219.1,12.2,219.2,12.3,219.5L12.3,219.5C12.4,219.8,12.3,220,12,220.1L12,220.1C11.9,220.1,11.9,220.1,11.8,220.1L11.8,220.1C11.6,220.1,11.4,220,11.3,219.8Z" fill="#a3a3a3"/>
            <path class="st0" d="M309.3,219.3C309.1,219.2,308.9,218.9,309,218.7L309,218.7C309.1,218.4,309.4,218.3,309.6,218.4L309.6,218.4C309.9,218.5,310,218.8,309.9,219L309.9,219L309.9,219L309.9,219C309.8,219.2,309.6,219.3,309.4,219.3L309.4,219.3C309.5,219.4,309.4,219.4,309.3,219.3Z" fill="#a3a3a3"/>
            <path class="st0" d="M8.7,212.7C8.6,212.4,8.7,212.2,9,212.1L9,212.1C9.3,212,9.5,212.1,9.6,212.4L9.6,212.4C9.7,212.7,9.6,212.9,9.3,213L9.3,213C9.2,213,9.2,213,9.1,213L9.1,213C9,213.1,8.8,212.9,8.7,212.7Z" fill="#a3a3a3"/>
            <path class="st0" d="M311.9,212.3C311.6,212.2,311.5,211.9,311.6,211.7L311.6,211.7C311.7,211.4,312,211.3,312.2,211.4L312.2,211.4C312.5,211.5,312.6,211.8,312.5,212L312.5,212C312.4,212.2,312.2,212.3,312,212.3L312,212.3C312,212.3,312,212.3,311.9,212.3Z" fill="#a3a3a3"/>
            <path class="st0" d="M6.4,205.6C6.3,205.3,6.5,205.1,6.7,205L6.7,205C7,204.9,7.2,205.1,7.3,205.3L7.3,205.3C7.4,205.6,7.2,205.8,7,205.9L7,205.9C7,205.9,6.9,205.9,6.9,205.9L6.9,205.9C6.7,205.9,6.5,205.8,6.4,205.6Z" fill="#a3a3a3"/>
            <path class="st0" d="M314.2,205.1C313.9,205,313.8,204.7,313.9,204.5L313.9,204.5C314,204.2,314.3,204.1,314.5,204.2L314.5,204.2C314.8,204.3,314.9,204.5,314.8,204.8L314.8,204.8L314.8,204.8L314.8,204.8C314.7,205,314.5,205.2,314.3,205.2L314.3,205.2C314.3,205.2,314.2,205.1,314.2,205.1Z" fill="#a3a3a3"/>
            <path class="st0" d="M4.5,198.3C4.5,198.3,4.5,198.3,4.5,198.3L4.5,198.3C4.4,198,4.6,197.8,4.9,197.7L4.9,197.7C5.2,197.6,5.4,197.8,5.5,198.1L5.5,198.1C5.6,198.4,5.4,198.6,5.1,198.7L5.1,198.7C5.1,198.7,5,198.7,5,198.7L5,198.7C4.8,198.7,4.5,198.5,4.5,198.3Z" fill="#a3a3a3"/>
            <path class="st0" d="M316.1,197.9C315.8,197.8,315.7,197.6,315.7,197.3L315.7,197.3C315.8,197,316,196.9,316.3,196.9L316.3,196.9C316.6,197,316.7,197.2,316.7,197.5L316.7,197.5C316.6,197.7,316.4,197.9,316.2,197.9L316.2,197.9C316.2,197.9,316.1,197.9,316.1,197.9Z" fill="#a3a3a3"/>
            <path class="st0" d="M2.9,190.9C2.8,190.6,3,190.4,3.3,190.3L3.3,190.3C3.6,190.3,3.8,190.4,3.9,190.7L3.9,190.7C3.9,191,3.8,191.2,3.5,191.3L3.5,191.3C3.5,191.3,3.4,191.3,3.4,191.3L3.4,191.3C3.1,191.4,2.9,191.2,2.9,190.9Z" fill="#a3a3a3"/>
            <path class="st0" d="M317.7,190.6C317.4,190.5,317.2,190.3,317.3,190L317.3,190C317.3,189.7,317.6,189.5,317.9,189.6L317.9,189.6C318.2,189.6,318.4,189.9,318.3,190.2L318.3,190.2L318.3,190.2L318.3,190.2C318.2,190.4,318,190.6,317.7,190.6L317.7,190.6C317.7,190.6,317.7,190.6,317.7,190.6Z" fill="#a3a3a3"/>
            <path class="st0" d="M1.6,183.5C1.6,183.2,1.7,183,2,182.9L2,182.9C2.3,182.9,2.5,183.1,2.6,183.3L2.6,183.3C2.6,183.6,2.5,183.8,2.2,183.9L2.2,183.9C2.2,183.9,2.2,183.9,2.1,183.9L2.1,183.9C1.9,184,1.7,183.8,1.6,183.5Z" fill="#a3a3a3"/>
            <path class="st0" d="M318.9,183.2C318.6,183.2,318.4,182.9,318.5,182.6L318.5,182.6C318.5,182.3,318.8,182.1,319.1,182.2L319.1,182.2C319.4,182.2,319.6,182.5,319.5,182.8L319.5,182.8C319.4,183,319.2,183.2,318.9,183.2L318.9,183.2C319,183.2,318.9,183.2,318.9,183.2Z" fill="#a3a3a3"/>
            <path class="st0" d="M0.8,176.1C0.8,175.8,1,175.6,1.3,175.6L1.3,175.6C1.6,175.6,1.8,175.8,1.8,176L1.8,176C1.8,176.3,1.6,176.5,1.3,176.6L1.3,176.6C1.3,176.6,1.3,176.6,1.3,176.6L1.3,176.6C1,176.5,0.8,176.3,0.8,176.1Z" fill="#a3a3a3"/>
            <path class="st0" d="M319.8,175.7C319.5,175.7,319.3,175.4,319.3,175.2L319.3,175.2C319.3,174.9,319.6,174.7,319.8,174.7L319.8,174.7C320.1,174.7,320.3,175,320.3,175.2L320.3,175.2C320.3,175.5,320.1,175.7,319.8,175.7L319.8,175.7C319.8,175.7,319.8,175.7,319.8,175.7Z" fill="#a3a3a3"/>
            <path class="st0" d="M0.2,168.6C0.2,168.3,0.4,168.1,0.7,168.1L0.7,168.1C1,168.1,1.2,168.3,1.2,168.6L1.2,168.6C1.2,168.9,1,169.1,0.7,169.1L0.7,169.1C0.7,169.1,0.7,169.1,0.7,169.1L0.7,169.1C0.4,169,0.2,168.8,0.2,168.6Z" fill="#a3a3a3"/>
            <path class="st0" d="M320.3,168.2C320,168.2,319.8,168,319.8,167.7L319.8,167.7C319.8,167.4,320,167.2,320.3,167.2L320.3,167.2C320.6,167.2,320.8,167.4,320.8,167.7L320.8,167.7C320.8,168,320.6,168.2,320.3,168.2L320.3,168.2C320.3,168.2,320.3,168.2,320.3,168.2Z" fill="#a3a3a3"/>
            <path class="st0" d="M0,161C0,160.7,0.2,160.5,0.5,160.5L0.5,160.5C0.8,160.5,1,160.7,1,161L1,161C1,161.3,0.8,161.5,0.5,161.5L0.5,161.5L0.5,161.5L0.5,161.5C0.2,161.5,0,161.3,0,161Z" fill="#a3a3a3"/>
            <path class="st0" d="M320.3,159.9C320.3,159.6,320.5,159.4,320.8,159.4L320.8,159.4C321.1,159.4,321.3,159.6,321.3,159.9L321.3,159.9C321.3,160.2,321.1,160.4,320.8,160.4L320.8,160.4L320.8,160.4L320.8,160.4C320.5,160.4,320.3,160.2,320.3,159.9Z" fill="#a3a3a3"/>
            <path class="st0" d="M0.6,154C0.3,154,0.1,153.8,0.1,153.5L0.1,153.5L0.1,153.5L0.1,153.5C0.1,153.2,0.3,153,0.6,153L0.6,153C0.9,153,1.1,153.2,1.1,153.5L1.1,153.5C1.1,153.8,0.9,154,0.6,154L0.6,154C0.6,154,0.6,154,0.6,154Z" fill="#a3a3a3"/>
            <path class="st0" d="M319.8,152.1C319.8,151.8,320,151.6,320.3,151.6L320.3,151.6C320.6,151.6,320.8,151.8,320.8,152.1L320.8,152.1C320.8,152.4,320.6,152.6,320.3,152.6L320.3,152.6C320.3,152.6,320.3,152.6,320.3,152.6L320.3,152.6C320,152.6,319.8,152.4,319.8,152.1Z" fill="#a3a3a3"/>
            <path class="st0" d="M1.1,146.6C0.8,146.6,0.6,146.3,0.6,146.1L0.6,146.1C0.6,145.8,0.9,145.6,1.1,145.6L1.1,145.6C1.4,145.6,1.6,145.9,1.6,146.2L1.6,146.2C1.6,146.4,1.4,146.6,1.1,146.6L1.1,146.6C1.1,146.6,1.1,146.6,1.1,146.6Z" fill="#a3a3a3"/>
            <path class="st0" d="M319.2,144.6C319.2,144.3,319.4,144.1,319.6,144L319.6,144C319.9,144,320.1,144.2,320.2,144.5L320.2,144.5C320.2,144.8,320,145,319.7,145L319.7,145C319.7,145,319.7,145,319.7,145L319.7,145C319.5,145.1,319.2,144.9,319.2,144.6Z" fill="#a3a3a3"/>
            <path class="st0" d="M1.9,139.1C1.6,139.1,1.4,138.8,1.5,138.5L1.5,138.5C1.5,138.2,1.8,138,2.1,138.1L2.1,138.1C2.4,138.1,2.6,138.4,2.5,138.7L2.5,138.7C2.4,138.9,2.2,139.1,1.9,139.1L1.9,139.1C2,139.1,1.9,139.1,1.9,139.1Z" fill="#a3a3a3"/>
            <path class="st0" d="M318.3,137.2C318.3,136.9,318.5,136.7,318.7,136.6L318.7,136.6C319,136.6,319.2,136.7,319.3,137L319.3,137C319.3,137.3,319.2,137.5,318.9,137.6L318.9,137.6C318.9,137.6,318.9,137.6,318.8,137.6L318.8,137.6C318.6,137.6,318.4,137.5,318.3,137.2Z" fill="#a3a3a3"/>
            <path class="st0" d="M3.1,131.7C2.8,131.7,2.6,131.4,2.7,131.1L2.7,131.1C2.7,130.8,3,130.7,3.3,130.7L3.3,130.7C3.6,130.7,3.7,131,3.7,131.3L3.7,131.3C3.6,131.5,3.4,131.7,3.1,131.7L3.1,131.7C3.1,131.7,3.1,131.7,3.1,131.7Z" fill="#a3a3a3"/>
            <path class="st0" d="M317.1,129.9C317.1,129.6,317.2,129.4,317.5,129.3L317.5,129.3C317.8,129.2,318,129.4,318.1,129.7L318.1,129.7L318.1,129.7L318.1,129.7C318.2,130,318,130.2,317.7,130.3L317.7,130.3C317.7,130.3,317.6,130.3,317.6,130.3L317.6,130.3C317.3,130.3,317.1,130.1,317.1,129.9Z" fill="#a3a3a3"/>
            <path class="st0" d="M4.6,124.4C4.3,124.3,4.2,124.1,4.2,123.8L4.2,123.8C4.3,123.5,4.5,123.4,4.8,123.4L4.8,123.4C5.1,123.5,5.2,123.7,5.2,124L5.2,124C5.2,124.2,4.9,124.4,4.7,124.4L4.7,124.4C4.7,124.4,4.6,124.4,4.6,124.4Z" fill="#a3a3a3"/>
            <path class="st0" d="M315.5,122.5C315.4,122.2,315.6,122,315.9,121.9L315.9,121.9C316.2,121.8,316.4,122,316.5,122.3L316.5,122.3C316.6,122.6,316.4,122.8,316.1,122.9L316.1,122.9C316.1,122.9,316,122.9,316,122.9L316,122.9C315.7,122.9,315.5,122.8,315.5,122.5Z" fill="#a3a3a3"/>
            <path class="st0" d="M6.5,117.1C6.2,117,6.1,116.7,6.1,116.5L6.1,116.5C6.2,116.2,6.5,116.1,6.7,116.2L6.7,116.2C7,116.3,7.1,116.6,7,116.8L7,116.8C6.9,117,6.7,117.2,6.5,117.2L6.5,117.2C6.5,117.1,6.5,117.1,6.5,117.1Z" fill="#a3a3a3"/>
            <path class="st0" d="M313.5,115.3C313.4,115,313.6,114.8,313.8,114.7L313.8,114.7C314.1,114.6,314.4,114.8,314.4,115L314.4,115L314.4,115L314.4,115C314.5,115.3,314.3,115.6,314.1,115.6L314.1,115.6C314.1,115.6,314,115.6,314,115.6L314,115.6C313.8,115.7,313.6,115.5,313.5,115.3Z" fill="#a3a3a3"/>
            <path class="st0" d="M8.6,109.9C8.3,109.8,8.2,109.5,8.3,109.3L8.3,109.3C8.4,109,8.7,108.9,8.9,109L8.9,109C9.2,109.1,9.3,109.4,9.2,109.6L9.2,109.6C9.2,109.8,9,110,8.8,110L8.8,110C8.8,110,8.7,109.9,8.6,109.9Z" fill="#a3a3a3"/>
            <path class="st0" d="M311.2,108.2L311.2,108.2C311.1,107.9,311.2,107.7,311.5,107.6L311.5,107.6C311.8,107.5,312.1,107.6,312.1,107.9L312.1,107.9L312.1,107.9L312.1,107.9C312.2,108.2,312.1,108.4,311.8,108.5L311.8,108.5C311.8,108.5,311.7,108.5,311.6,108.5L311.6,108.5C311.5,108.6,311.3,108.4,311.2,108.2Z" fill="#a3a3a3"/>
            <path class="st0" d="M11.2,102.9C10.9,102.8,10.8,102.5,10.9,102.3L10.9,102.3C11,102,11.3,101.9,11.5,102L11.5,102C11.7,102.1,11.9,102.4,11.8,102.6L11.8,102.6C11.7,102.8,11.5,102.9,11.3,102.9L11.3,102.9C11.3,102.9,11.2,102.9,11.2,102.9Z" fill="#a3a3a3"/>
            <path class="st0" d="M308.6,101.2C308.5,100.9,308.6,100.7,308.9,100.6L308.9,100.6C309.1,100.5,309.4,100.6,309.5,100.9L309.5,100.9C309.6,101.1,309.5,101.4,309.2,101.5L309.2,101.5C309.1,101.5,309.1,101.5,309,101.5L309,101.5C308.9,101.5,308.7,101.4,308.6,101.2Z" fill="#a3a3a3"/>
            <path class="st0" d="M14.1,95.9C13.9,95.8,13.7,95.5,13.8,95.2L13.8,95.2C13.9,95,14.2,94.8,14.5,95L14.5,95C14.7,95.1,14.9,95.4,14.8,95.7L14.8,95.7C14.7,95.9,14.5,96,14.3,96L14.3,96C14.2,96,14.1,95.9,14.1,95.9Z" fill="#a3a3a3"/>
            <path class="st0" d="M305.7,94.4C305.6,94.2,305.7,93.9,305.9,93.7L305.9,93.7C306.2,93.6,306.5,93.7,306.6,93.9L306.6,93.9L306.6,93.9L306.6,93.9C306.7,94.1,306.6,94.5,306.4,94.6L306.4,94.6C306.3,94.6,306.3,94.7,306.2,94.7L306.2,94.7C306,94.7,305.8,94.5,305.7,94.4Z" fill="#a3a3a3"/>
            <path class="st0" d="M17.2,89.1C17,89,16.9,88.7,17,88.4L17,88.4C17.1,88.2,17.4,88.1,17.7,88.2L17.7,88.2C17.9,88.3,18,88.6,17.9,88.9L17.9,88.9C17.8,89.1,17.6,89.2,17.5,89.2L17.5,89.2C17.4,89.2,17.3,89.2,17.2,89.1Z" fill="#a3a3a3"/>
            <path class="st0" d="M302.4,87.6C302.3,87.4,302.4,87.1,302.6,86.9L302.6,86.9C302.8,86.8,303.1,86.9,303.3,87.1L303.3,87.1C303.4,87.3,303.3,87.6,303.1,87.8L303.1,87.8C303,87.8,303,87.8,302.9,87.8L302.9,87.8C302.7,87.9,302.5,87.8,302.4,87.6Z" fill="#a3a3a3"/>
            <path class="st0" d="M20.8,82.5C20.6,82.4,20.5,82.1,20.6,81.8L20.6,81.8C20.7,81.6,21,81.5,21.3,81.6L21.3,81.6C21.5,81.7,21.6,82,21.5,82.3L21.5,82.3C21.4,82.5,21.2,82.5,21.1,82.5L21.1,82.5C20.9,82.5,20.8,82.5,20.8,82.5Z" fill="#a3a3a3"/>
            <path class="st0" d="M298.9,81.1L298.9,81.1C298.8,80.9,298.8,80.5,299.1,80.4L299.1,80.4C299.3,80.3,299.6,80.3,299.8,80.6L299.8,80.6L299.8,80.6L299.8,80.6C299.9,80.8,299.9,81.1,299.6,81.3L299.6,81.3C299.5,81.4,299.4,81.4,299.4,81.4L299.4,81.4C299.1,81.4,299,81.3,298.9,81.1Z" fill="#a3a3a3"/>
            <path class="st0" d="M24.6,76C24.4,75.9,24.3,75.5,24.4,75.3L24.4,75.3C24.5,75.1,24.9,75,25.1,75.1L25.1,75.1C25.3,75.2,25.4,75.5,25.3,75.8L25.3,75.8C25.2,75.9,25,76,24.9,76L24.9,76C24.8,76.1,24.7,76.1,24.6,76Z" fill="#a3a3a3"/>
            <path class="st0" d="M295,74.7C294.8,74.5,294.9,74.2,295.1,74L295.1,74C295.3,73.9,295.6,73.9,295.8,74.2L295.8,74.2C295.9,74.4,295.9,74.7,295.7,74.9L295.7,74.9C295.6,74.9,295.5,75,295.4,75L295.4,75C295.3,74.9,295.1,74.9,295,74.7Z" fill="#a3a3a3"/>
            <path class="st0" d="M28.7,69.8C28.5,69.6,28.4,69.3,28.6,69.1L28.6,69.1C28.8,68.9,29.1,68.8,29.3,69L29.3,69C29.5,69.1,29.6,69.5,29.4,69.7L29.4,69.7C29.3,69.8,29.2,69.9,29,69.9L29,69.9C28.9,69.8,28.8,69.8,28.7,69.8Z" fill="#a3a3a3"/>
            <path class="st0" d="M290.8,68.5C290.6,68.3,290.7,68,290.9,67.8L290.9,67.8C291.1,67.6,291.4,67.7,291.6,67.9L291.6,67.9C291.6,67.9,291.6,67.9,291.6,67.9L291.6,67.9C291.8,68.1,291.7,68.4,291.5,68.6L291.5,68.6C291.4,68.7,291.3,68.7,291.2,68.7L291.2,68.7C291.1,68.7,290.9,68.6,290.8,68.5Z" fill="#a3a3a3"/>
            <path class="st0" d="M33.1,63.7C32.9,63.5,32.8,63.2,33,63L33,63L33,63L33,63C33.2,62.8,33.5,62.7,33.7,62.9L33.7,62.9C33.9,63.1,34,63.4,33.8,63.6L33.8,63.6C33.7,63.7,33.6,63.8,33.4,63.8L33.4,63.8C33.3,63.8,33.2,63.7,33.1,63.7Z" fill="#a3a3a3"/>
            <path class="st0" d="M286.4,62.5C286.2,62.3,286.3,62,286.5,61.8L286.5,61.8C286.7,61.6,287,61.7,287.2,61.9L287.2,61.9C287.4,62.1,287.3,62.4,287.1,62.6L287.1,62.6C287,62.7,286.9,62.7,286.8,62.7L286.8,62.7C286.6,62.7,286.5,62.6,286.4,62.5Z" fill="#a3a3a3"/>
            <path class="st0" d="M37.8,57.8C37.6,57.6,37.6,57.3,37.8,57.1L37.8,57.1C38,56.9,38.3,56.9,38.5,57L38.5,57C38.7,57.2,38.7,57.5,38.6,57.7L38.6,57.7C38.5,57.8,38.4,57.9,38.2,57.9L38.2,57.9C38,57.9,37.9,57.9,37.8,57.8Z" fill="#a3a3a3"/>
            <path class="st0" d="M281.7,56.7C281.5,56.5,281.5,56.2,281.7,56L281.7,56C281.9,55.8,282.2,55.9,282.4,56.1L282.4,56.1L282.4,56.1L282.4,56.1C282.6,56.3,282.5,56.6,282.3,56.8L282.3,56.8C282.2,56.9,282.1,56.9,282,56.9L282,56.9C281.9,56.9,281.8,56.9,281.7,56.7Z" fill="#a3a3a3"/>
            <path class="st0" d="M42.7,52.2C42.5,52,42.5,51.7,42.7,51.5L42.7,51.5C42.9,51.3,43.2,51.3,43.4,51.5L43.4,51.5C43.6,51.7,43.6,52,43.4,52.2L43.4,52.2C43.3,52.3,43.2,52.4,43,52.4L43,52.4C42.9,52.3,42.8,52.3,42.7,52.2Z" fill="#a3a3a3"/>
            <path class="st0" d="M276.7,51.2C276.5,51,276.5,50.7,276.7,50.5L276.7,50.5C276.9,50.3,277.2,50.3,277.4,50.5L277.4,50.5C277.6,50.7,277.6,51,277.4,51.2L277.4,51.2C277.3,51.3,277.2,51.3,277.1,51.3L277.1,51.3C276.9,51.3,276.8,51.3,276.7,51.2Z" fill="#a3a3a3"/>
            <path class="st0" d="M47.9,46.8C47.7,46.6,47.7,46.3,47.9,46.1L47.9,46.1C48.1,45.9,48.4,45.9,48.6,46.1L48.6,46.1C48.8,46.3,48.8,46.6,48.6,46.8L48.6,46.8C48.5,46.9,48.4,47,48.3,47L48.3,47C48.1,46.9,48,46.9,47.9,46.8Z" fill="#a3a3a3"/>
            <path class="st0" d="M271.4,45.9C271.2,45.7,271.2,45.4,271.4,45.2L271.4,45.2C271.6,45,271.9,45,272.1,45.2L272.1,45.2C272.3,45.4,272.3,45.7,272.1,45.9L272.1,45.9C272,46,271.9,46.1,271.7,46.1L271.7,46.1C271.6,46,271.5,45.9,271.4,45.9Z" fill="#a3a3a3"/>
            <path class="st0" d="M53.4,41.6C53.2,41.4,53.2,41.1,53.4,40.9L53.4,40.9L53.4,40.9L53.4,40.9C53.6,40.7,53.9,40.7,54.1,40.9L54.1,40.9C54.3,41.1,54.3,41.4,54.1,41.6L54.1,41.6C54,41.7,53.9,41.7,53.8,41.7L53.8,41.7C53.6,41.8,53.5,41.7,53.4,41.6Z" fill="#a3a3a3"/>
            <path class="st0" d="M265.9,40.8L265.9,40.8C265.7,40.6,265.7,40.3,265.8,40.1L265.8,40.1C266,39.9,266.3,39.9,266.5,40L266.5,40L266.5,40L266.5,40C266.7,40.2,266.7,40.5,266.5,40.7L266.5,40.7C266.4,40.8,266.3,40.9,266.1,40.9L266.1,40.9C266.1,40.9,266,40.9,265.9,40.8Z" fill="#a3a3a3"/>
            <path class="st0" d="M59.1,36.7C58.9,36.5,59,36.2,59.2,36L59.2,36C59.4,35.8,59.7,35.9,59.9,36.1L59.9,36.1C60.1,36.3,60,36.6,59.8,36.8L59.8,36.8C59.7,36.9,59.6,36.9,59.5,36.9L59.5,36.9C59.3,36.9,59.1,36.9,59.1,36.7Z" fill="#a3a3a3"/>
            <path class="st0" d="M260.2,36L260.2,36C260,35.8,260,35.5,260.1,35.3L260.1,35.3C260.3,35.1,260.6,35.1,260.8,35.2L260.8,35.2C261,35.4,261,35.7,260.9,35.9L260.9,35.9C260.8,36,260.7,36.1,260.5,36.1L260.5,36.1C260.4,36.1,260.3,36,260.2,36Z" fill="#a3a3a3"/>
            <path class="st0" d="M65,32.1C64.8,31.9,64.9,31.6,65.1,31.4L65.1,31.4C65.3,31.2,65.6,31.3,65.8,31.5L65.8,31.5C66,31.7,65.9,32,65.7,32.2L65.7,32.2C65.6,32.3,65.5,32.3,65.4,32.3L65.4,32.3C65.2,32.3,65,32.2,65,32.1Z" fill="#a3a3a3"/>
            <path class="st0" d="M254.3,31.4C254.1,31.2,254,30.9,254.2,30.7L254.2,30.7C254.4,30.5,254.7,30.4,254.9,30.6L254.9,30.6C255.1,30.8,255.2,31.1,255,31.3L255,31.3C254.9,31.4,254.8,31.5,254.6,31.5L254.6,31.5C254.5,31.5,254.4,31.5,254.3,31.4Z" fill="#a3a3a3"/>
            <path class="st0" d="M71.1,27.8C71,27.6,71,27.2,71.2,27.1L71.2,27.1C71.4,27,71.7,27,71.9,27.2L71.9,27.2C72,27.4,72,27.7,71.8,27.9L71.8,27.9C71.7,28,71.6,28,71.5,28L71.5,28C71.3,28,71.2,27.9,71.1,27.8Z" fill="#a3a3a3"/>
            <path class="st0" d="M248.1,27.2C247.9,27.1,247.8,26.7,248,26.5L248,26.5C248.1,26.3,248.5,26.2,248.7,26.4L248.7,26.4C248.9,26.6,249,26.9,248.8,27.1L248.8,27.1C248.7,27.2,248.5,27.3,248.4,27.3L248.4,27.3C248.3,27.2,248.2,27.2,248.1,27.2Z" fill="#a3a3a3"/>
            <path class="st0" d="M77.4,23.7C77.3,23.5,77.3,23.2,77.6,23L77.6,23C77.8,22.9,78.1,22.9,78.3,23.2L78.3,23.2C78.4,23.4,78.4,23.8,78.1,23.9L78.1,23.9C78,24,77.9,24,77.8,24L77.8,24C77.6,24,77.5,23.9,77.4,23.7Z" fill="#a3a3a3"/>
            <path class="st0" d="M241.8,23.2L241.8,23.2C241.6,23.1,241.5,22.8,241.6,22.5L241.6,22.5C241.7,22.3,242,22.2,242.3,22.3L242.3,22.3C242.5,22.4,242.6,22.8,242.5,23L242.5,23C242.4,23.2,242.2,23.2,242.1,23.2L242.1,23.2C241.9,23.3,241.9,23.2,241.8,23.2Z" fill="#a3a3a3"/>
            <path class="st0" d="M83.9,20C83.8,19.8,83.9,19.5,84.1,19.3L84.1,19.3C84.3,19.2,84.7,19.3,84.8,19.5L84.8,19.5C84.9,19.7,84.8,20,84.6,20.2L84.6,20.2C84.5,20.2,84.4,20.3,84.4,20.3L84.4,20.3C84.1,20.3,83.9,20.2,83.9,20Z" fill="#a3a3a3"/>
            <path class="st0" d="M235.2,19.5C235,19.4,234.9,19.1,235,18.8L235,18.8C235.1,18.6,235.4,18.5,235.7,18.6L235.7,18.6C235.9,18.7,236,19,235.9,19.3L235.9,19.3C235.8,19.5,235.6,19.6,235.5,19.6L235.5,19.6C235.4,19.6,235.3,19.6,235.2,19.5Z" fill="#a3a3a3"/>
            <path class="st0" d="M90.5,16.6C90.4,16.4,90.5,16,90.7,15.9L90.7,15.9C90.9,15.8,91.3,15.9,91.4,16.1L91.4,16.1C91.5,16.3,91.4,16.6,91.2,16.8L91.2,16.8C91.1,16.8,91.1,16.8,91,16.8L91,16.8C90.8,16.8,90.6,16.7,90.5,16.6Z" fill="#a3a3a3"/>
            <path class="st0" d="M228.5,16.2C228.3,16.1,228.2,15.8,228.3,15.5L228.3,15.5C228.4,15.3,228.7,15.2,229,15.3L229,15.3C229.2,15.4,229.4,15.7,229.2,16L229.2,16C229.1,16.2,228.9,16.3,228.7,16.3L228.7,16.3C228.7,16.2,228.6,16.2,228.5,16.2Z" fill="#a3a3a3"/>
            <path class="st0" d="M97.3,13.4C97.2,13.2,97.3,12.9,97.6,12.8L97.6,12.8C97.9,12.7,98.1,12.8,98.3,13.1L98.3,13.1C98.4,13.3,98.3,13.7,98,13.8L98,13.8C97.9,13.8,97.9,13.8,97.8,13.8L97.8,13.8C97.6,13.8,97.4,13.6,97.3,13.4Z" fill="#a3a3a3"/>
            <path class="st0" d="M221.7,13.1C221.5,13,221.3,12.7,221.4,12.4L221.4,12.4C221.5,12.1,221.8,12,222,12.1L222,12.1C222.3,12.2,222.4,12.5,222.3,12.8L222.3,12.8C222.2,13,222,13.1,221.8,13.1L221.8,13.1C221.8,13.2,221.8,13.2,221.7,13.1Z" fill="#a3a3a3"/>
            <path class="st0" d="M104.2,10.6C104.1,10.3,104.2,10.1,104.5,10L104.5,10C104.8,9.9,105,10,105.1,10.3L105.1,10.3C105.2,10.6,105.1,10.8,104.8,10.9L104.8,10.9C104.7,10.9,104.7,10.9,104.6,10.9L104.6,10.9C104.5,11,104.3,10.9,104.2,10.6Z" fill="#a3a3a3"/>
            <path class="st0" d="M214.7,10.4C214.4,10.3,214.3,10,214.4,9.8L214.4,9.8C214.5,9.5,214.8,9.4,215,9.5L215,9.5C215.3,9.6,215.4,9.9,215.3,10.1L215.3,10.1C215.2,10.3,215,10.4,214.8,10.4L214.8,10.4C214.8,10.5,214.8,10.4,214.7,10.4Z" fill="#a3a3a3"/>
            <path class="st0" d="M111.3,8.2C111.2,7.9,111.4,7.6,111.6,7.6L111.6,7.6C111.9,7.5,112.1,7.7,112.2,7.9L112.2,7.9C112.3,8.2,112.1,8.4,111.9,8.5L111.9,8.5C111.9,8.5,111.8,8.5,111.8,8.5L111.8,8.5C111.6,8.5,111.4,8.4,111.3,8.2Z" fill="#a3a3a3"/>
            <path class="st0" d="M207.6,8C207.3,7.9,207.2,7.6,207.3,7.4L207.3,7.4C207.4,7.1,207.7,7,207.9,7.1L207.9,7.1C208.2,7.2,208.3,7.5,208.2,7.7L208.2,7.7C208.1,7.9,207.9,8.1,207.7,8.1L207.7,8.1C207.7,8.1,207.7,8.1,207.6,8Z" fill="#a3a3a3"/>
            <path class="st0" d="M118.5,6C118.4,5.7,118.6,5.5,118.9,5.4L118.9,5.4C119.2,5.3,119.4,5.5,119.5,5.7L119.5,5.7C119.6,6,119.4,6.3,119.1,6.3L119.1,6.3C119.1,6.3,119,6.3,119,6.3L119,6.3C118.8,6.4,118.6,6.3,118.5,6Z" fill="#a3a3a3"/>
            <path class="st0" d="M200.4,6L200.4,6C200.1,5.9,200,5.6,200,5.4L200,5.4C200.1,5.1,200.3,5,200.6,5L200.6,5C200.9,5.1,201,5.3,201,5.6L201,5.6C201,5.9,200.8,6,200.6,6L200.6,6C200.5,6,200.5,6,200.4,6Z" fill="#a3a3a3"/>
            <path class="st0" d="M125.8,4.2C125.7,3.9,125.9,3.7,126.2,3.6L126.2,3.6L126.2,3.6L126.2,3.6C126.5,3.5,126.7,3.7,126.8,4L126.8,4C126.9,4.3,126.7,4.5,126.4,4.6L126.4,4.6C126.4,4.6,126.3,4.6,126.3,4.6L126.3,4.6C126,4.6,125.8,4.5,125.8,4.2Z" fill="#a3a3a3"/>
            <path class="st0" d="M193.1,4.3C192.8,4.2,192.7,4,192.7,3.7L192.7,3.7C192.7,3.4,193,3.3,193.3,3.3L193.3,3.3C193.6,3.4,193.7,3.6,193.7,3.9L193.7,3.9C193.7,4.1,193.4,4.3,193.2,4.3L193.2,4.3C193.2,4.3,193.2,4.3,193.1,4.3Z" fill="#a3a3a3"/>
            <path class="st0" d="M133.1,2.8C133,2.5,133.2,2.3,133.5,2.2L133.5,2.2C133.8,2.2,134,2.3,134.1,2.6L134.1,2.6C134.1,2.9,134,3.1,133.7,3.2L133.7,3.2C133.7,3.2,133.7,3.2,133.6,3.2L133.6,3.2C133.4,3.2,133.2,3,133.1,2.8Z" fill="#a3a3a3"/>
            <path class="st0" d="M185.8,3C185.5,3,185.3,2.7,185.4,2.4L185.4,2.4C185.4,2.1,185.7,1.9,186,2L186,2C186.3,2,186.5,2.3,186.4,2.6L186.4,2.6C186.3,2.8,186.1,3,185.8,3L185.8,3C185.9,3,185.8,3,185.8,3Z" fill="#a3a3a3"/>
            <path class="st0" d="M140.5,1.7C140.5,1.4,140.7,1.2,140.9,1.1L140.9,1.1L140.9,1.1L140.9,1.1C141.2,1.1,141.4,1.3,141.4,1.5L141.4,1.5C141.4,1.8,141.2,2,141,2.1L141,2.1C141,2.1,141,2.1,140.9,2.1L140.9,2.1C140.8,2.1,140.6,2,140.5,1.7Z" fill="#a3a3a3"/>
            <path class="st0" d="M178.4,2C178.1,2,177.9,1.7,178,1.4L178,1.4C178,1.1,178.3,0.9,178.6,1L178.6,1C178.9,1,179.1,1.3,179,1.6L179,1.6C178.9,1.8,178.7,2,178.4,2L178.4,2C178.4,2,178.4,2,178.4,2Z" fill="#a3a3a3"/>
            <path class="st0" d="M148,0.9C148,0.6,148.2,0.4,148.5,0.4L148.5,0.4C148.8,0.4,149,0.6,149,0.9L149,0.9C149,1.2,148.8,1.4,148.5,1.4L148.5,1.4C148.5,1.4,148.5,1.4,148.5,1.4L148.5,1.4C148.2,1.4,148,1.2,148,0.9Z" fill="#a3a3a3"/>
            <path class="st0" d="M171,1.3L171,1.3C170.7,1.3,170.5,1,170.5,0.8L170.5,0.8C170.5,0.5,170.7,0.3,171,0.3L171,0.3C171.3,0.3,171.5,0.6,171.5,0.8L171.5,0.8C171.5,1.1,171.2,1.3,171,1.3L171,1.3C171,1.3,171,1.3,171,1.3Z" fill="#a3a3a3"/>
            <path class="st0" d="M155.5,0.5C155.5,0.2,155.7,0,156,0L156,0C156.3,0,156.5,0.2,156.5,0.5L156.5,0.5C156.5,0.8,156.3,1,156,1L156,1L156,1L156,1C155.7,1,155.5,0.8,155.5,0.5Z" fill="#a3a3a3"/>
            <path class="st0" d="M163.5,1C163.2,1,163,0.8,163,0.5L163,0.5C163,0.2,163.2,0,163.5,0L163.5,0C163.8,0,164,0.2,164,0.5L164,0.5C164,0.8,163.8,1,163.5,1L163.5,1L163.5,1Z" fill="#a3a3a3"/>
        </g>
    </g>
    <script><![CDATA[/*
 KeyshapeJS v1.0.0 (c) 2018 Pixofield Ltd | pixofield.com/keyshapejs/mit-license */
window.KeyshapeJS=function(){function A(a){return"undefined"!==typeof a}function v(a,b){return a&&0==a.indexOf(b)}function H(a){if(!isFinite(a))throw Error("Non-finite value");}function Q(a){if(14>=a)return 16;var b=R[a];b||(b=A(ba[a])?0|(a.toLowerCase().indexOf("color")==a.length-5?48:0):1);return b}function J(a){return 0<=a?Math.pow(a,1/3):-Math.pow(-a,1/3)}function ca(a,b,c,d){if(0==a)return 0==b?b=-d/c:(a=Math.sqrt(c*c-4*b*d),d=(-c+a)/(2*b),0<=d&&1>=d?b=d:(d=(-c-a)/(2*b),b=0<=d&&1>=d?d:0)),b;
var e=c/a-b*b/(a*a)/3;c=b*b*b/(a*a*a)/13.5-b*c/(a*a)/3+d/a;var n=c*c/4+e*e*e/27;b=-b/(3*a);if(0>=n){if(0==e&&0==c)return-J(d/a);a=Math.sqrt(c*c/4-n);d=Math.acos(-c/2/a);c=Math.cos(d/3);d=Math.sqrt(3)*Math.sin(d/3);a=J(a);e=2*a*c+b;if(0<=e&&1>=e)return e;e=-a*(c+d)+b;if(0<=e&&1>=e)return e;e=a*(d-c)+b;if(0<=e&&1>=e)return e}else{a=J(-c/2+Math.sqrt(n));c=J(-c/2-Math.sqrt(n));d=a+c+b;if(0<=d&&1>=d)return d;d=-(a+c)/2+b;if(0<=d&&1>=d)return d}return 0}function da(a,b){if(48==a&&"number"===typeof b)return"#"+
("000000"+b.toString(16)).substr(-6);if(64==a)return b=b.map(function(a){return a+"px"}),b.join(",");if(96==a){a="";for(var c=b.length,d=0;d<c;d+=2)a+=b[d],a+=b[d+1].join(",");return a}if(80==a){if(0==b[0])return"none";a="";c=b.length;for(d=0;d<c;)a+=S[b[d]],1==b[d]?a+="("+b[d+1]+") ":5==b[d]?(a+="("+b[d+1]+"px "+b[d+2]+"px "+b[d+3]+"px rgba("+(b[d+4]>>>24)+","+(b[d+4]>>16&255)+","+(b[d+4]>>8&255)+","+(b[d+4]&255)/255+")) ",d+=3):a=2==b[d]?a+("("+b[d+1]+"px) "):7==b[d]?a+("("+b[d+1]+"deg) "):a+("("+
(0>b[d+1]?0:b[d+1])+") "),d+=2;return a}return 32==a?b+"px":b}function w(a){return 0>=a?0:255<=a?255:a}function ea(a,b,c,d){if(16==a||32==a)return(c-b)*d+b;if(0==a)return.5>d?b:c;if(48==a){if("number"===typeof b&&"number"===typeof c){var e=1-d;return w(e*(b>>16)+d*(c>>16))<<16|w(e*(b>>8&255)+d*(c>>8&255))<<8|w(e*(b&255)+d*(c&255))}return.5>d?b:c}if(64==a){0==b.length&&(b=[0]);0==c.length&&(c=[0]);var n=b.length;b.length!=c.length&&(n=b.length*c.length);var k=[];for(a=0;a<n;++a){var f=b[a%b.length];
var h=(c[a%c.length]-f)*d+f;0>h&&(h=0);k.push(h)}return k}if(96==a){if(b.length!=c.length)return.5>d?b:c;n=b.length;k=[];for(a=0;a<n;a+=2){if(b[a]!==c[a])return.5>d?b:c;k[a]=b[a];k[a+1]=[];for(f=0;f<b[a+1].length;++f)k[a+1].push((c[a+1][f]-b[a+1][f])*d+b[a+1][f])}return k}if(80==a){n=b.length;if(n!=c.length)return.5>d?b:c;k=[];for(a=0;a<n;){if(b[a]!=c[a]||1==b[a])return.5>d?b:c;k[a]=b[a];k[a+1]=(c[a+1]-b[a+1])*d+b[a+1];if(5==b[a]){k[a+2]=(c[a+2]-b[a+2])*d+b[a+2];k[a+3]=(c[a+3]-b[a+3])*d+b[a+3];e=
1-d;var g=b[a+4],q=c[a+4];h=e*(g>>>24)+d*(q>>>24);var m=e*(g>>16&255)+d*(q>>16&255);f=e*(g>>8&255)+d*(q>>8&255);k[a+4]=(w(m)<<16|w(f)<<8|w(e*(g&255)+d*(q&255)))+16777216*(w(h)|0);a+=3}a+=2}return k}return 0}function T(a,b){a:{var c=a+b[2];var d=b[4].length;for(var e=0;e<d;++e)if(c<b[4][e]){c=e;break a}c=d-1}d=b[2];e=b[4][c-1]-d;a=(a-e)/(b[4][c]-d-e);if(b[6]&&b[6].length>c-1)if(d=b[6][c-1],1==d[0])if(0>=a)a=0;else if(1<=a)a=1;else{e=d[1];var n=d[3];a=ca(3*e-3*n+1,-6*e+3*n,3*e,-a);a=3*a*(1-a)*(1-a)*
d[2]+3*a*a*(1-a)*d[4]+a*a*a}else 2==d[0]?(d=d[1],a=Math.ceil(a*d)/d):3==d[0]&&(d=d[1],a=Math.floor(a*d)/d);return ea(b[1]&240,b[5][c-1],b[5][c],a)}function K(){x||(u=(new Date).getTime()+U)}function N(a){if(a||!C){for(var b=!1,c=0;c<t.length;++c)t[c].I(a)&&(b=!0);if(a)for(;0<F.length;)if(a=F.shift(),c=a[0],1==a[1])c.onfinish&&(c.onfinish(),b=!0),c.H();else if(2==a[1]&&c.onloop)c.onloop();return b}}function V(){K();N(!0)&&!x?(C=!0,L(V)):C=!1}function M(){C||(C=!0,L(V))}function W(a,b){var c=[];a.split(b).forEach(function(a){c.push(parseFloat(a))});
return c}function y(a){-1==a.indexOf(",")&&(a=a.replace(" ",","));return W(a,",")}function X(a){a._ks||(a._ks={});if(!a._ks.transform){for(var b=a._ks.transform=[],c=0;14>=c;++c)b[c]=0;b[10]=1;b[11]=1;if(a=a.getAttribute("transform")){a=a.trim().split(") ");for(c=a.length-2;0<=c;--c)if(v(a[c],"translate(")){for(var d=0;d<c;d++)a.shift();break}c=a.shift();v(c,"translate(")&&(c=y(c.substring(10)),b[1]=c[0],b[2]=A(c[1])?c[1]:0,c=a.shift());v(c,"rotate(")&&(c=y(c.substring(7)),b[6]=c[0],c=a.shift());
v(c,"skewX(")&&(c=y(c.substring(6)),b[7]=c[0],c=a.shift());v(c,"skewY(")&&(c=y(c.substring(6)),b[8]=c[0],c=a.shift());v(c,"scale(")&&(c=y(c.substring(6)),b[10]=c[0],b[11]=A(c[1])?c[1]:0,c=a.shift());v(c,"translate(")&&(c=y(c.substring(10)),b[13]=c[0],b[14]=A(c[1])?c[1]:0)}}}function Y(a){this.D=a;this.B=[];this.w=[];this.s=0;this.o=this.a=this.c=null;this.h=this.f=this.g=0;this.b=1;this.i=this.C=this.m=!1}function I(a,b,c){b=a[b];void 0===b&&(b=a[c]);return b}function fa(a){return Array.isArray(a)?
a:v(a,"cubic-bezier(")?(a=a.substring(13,a.length-1).split(","),[1,parseFloat(a[0]),parseFloat(a[1]),parseFloat(a[2]),parseFloat(a[3])]):v(a,"steps(")?(a=a.substring(6,a.length-1).split(","),[a[1]&&"start"==a[1].trim()?2:3,parseFloat(a[0])]):[0]}function ha(a){a=a.trim();return v(a,"#")?(parseInt(a.substring(1),16)<<8)+255:v(a,"rgba(")?(a=a.substring(5,a.length-1),a=a.split(","),(parseInt(a[0],10)<<24)+(parseInt(a[1],10)<<16)+(parseInt(a[2],10)<<8)+255*parseFloat(a[3])<<0):a}function Z(a){!1===a.i&&
(t.push(a),a.i=!0,!1!==a.D.autoplay&&a.play());return this}function O(a){if(!0===a.i){a._cancel();var b=t.indexOf(a);-1<b&&t.splice(b,1);b=F.indexOf(a);-1<b&&F.splice(b,1);a.i=!1}return this}var P=Error("Not in timeline list"),aa="mpath posX posY    rotate skewX skewY  scaleX scaleY  anchorX anchorY".split(" "),ia=" translate translate    rotate skewX skewY  scale scale  translate translate".split(" "),S="none url blur brightness contrast drop-shadow grayscale hue-rotate invert opacity saturate sepia".split(" "),
L=window.requestAnimationFrame||window.webkitRequestAnimationFrame||window.mozRequestAnimationFrame||window.oRequestAnimationFrame||window.msRequestAnimationFrame||null;L||(L=function(a){window.setTimeout(a,16)});var R={d:97,fill:48,fillOpacity:16,filter:80,height:33,opacity:16,offsetDistance:33,stroke:48,strokeDasharray:64,strokeDashoffset:32,strokeOpacity:16,strokeWidth:32,transform:1,width:33},ba=window.getComputedStyle(document.documentElement),C=!1,u=(new Date).getTime(),x,U=0,t=[],F=[];Y.prototype=
{v:function(a){var b=0;if(null!==this.c){var c=this.j();0<this.b&&null!==c&&c>=this.f?this.h?(this.c=u-this.g/this.b,this.h--,b=2):(b=1,a?this.a=c:this.a=this.o?Math.max(this.o,this.f):this.f):0>this.b&&null!==c&&c<=this.g?this.h&&Infinity!=this.f?(this.c=u-this.f/this.b,this.h--,b=2):(this.h=0,b=1,a?this.a=c:this.a=this.o?Math.min(this.o,this.g):this.g):null!==c&&0!=this.b&&(a&&null!==this.a&&(this.c=u-this.a/this.b),this.a=null)}this.o=this.j();return b},I:function(a){a&&(this.m&&(this.m=!1,null===
this.c&&(0!=this.b&&null!==this.a?(this.c=u-this.a/this.b,this.a=null):this.c=u)),null===this.a&&null!==this.c&&(a=this.v(!1),0!=a&&F.push([this,a])));a=this.j();if(null===a)return!1;for(var b=this.B,c=this.w,d=0;d<b.length;++d){for(var e=b[d],n=!1,k=0;k<c[d].length;++k){var f=c[d][k],h=f[0];if(null!==h){var g=f[2];var q=f[4].length,m=f[4][q-1]-g;g=0==m?f[5][q-1]:a<=g?f[5][0]:a>=g+f[3]?0==f[3]%m?f[5][q-1]:T(f[3]%m,f):T((a-g)%m,f);0==h?(e._ks.mpath=f[8],e._ks.transform[h]=g,n=!0):14>=h?(e._ks.transform[h]=
g,n=!0):(g=da(f[1]&240,g),f[1]&1?e.setAttribute(h,g):e.style[h]=g)}}if(n){X(e);n=e._ks.transform;k="";if(f=e._ks.mpath)g=n[0],0>g&&(g=0),100<g&&(g=100),g=g*f[2]/100,h=f[1].getPointAtLength(g),k="translate("+h.x+","+h.y+") ",f[0]&&(.5>g?(g=h,h=f[1].getPointAtLength(.5)):g=f[1].getPointAtLength(g-.5),k+="rotate("+180*Math.atan2(h.y-g.y,h.x-g.x)/Math.PI+") ");for(f=1;f<n.length;++f)h=n[f],h!=(10==f||11==f?1:0)&&(k+=" "+ia[f]+"(",k=2>=f?k+(1==f?h+",0":"0,"+h):13<=f?k+(13==f?h+",0":"0,"+h):10<=f?k+(10==
f?h+",1":"1,"+h):k+h,k+=")");e.setAttribute("transform",k)}}return"running"==this.l()},H:function(){!1!==this.D.autoremove&&"finished"==this.l()&&O(this)},A:function(){if(!this.C){this.C=!0;for(var a=this.B,b=this.w,c=0;c<a.length;++c)for(var d=a[c],e=0;e<b[c].length;++e)14>=b[c][e][0]&&X(d)}},play:function(a){A(a)&&null!==a&&(H(a),0>this.b&&a<this.g&&(a=this.g),0<this.b&&a>this.f&&(a=this.f),this.u(a,!0));if(!this.i)throw P;a=this.j();if(0<this.b&&(null===a||a>=this.f))this.a=this.g;else if(0>this.b&&
(null===a||a<=this.g)){if(Infinity==this.f)throw Error("Cannot seek to Infinity");this.a=this.f}else 0==this.b&&null===a&&(this.a=this.g);if(null===this.a)return this;this.c=null;this.m=!0;this.A();M();return this},pause:function(a){if(!this.i)throw P;A(a)&&H(a);if("paused"!=this.l()){K();var b=this.j();if(null===b)if(0<=this.b)this.a=this.g;else{if(Infinity==this.f)throw Error("Cannot seek to Infinity");this.a=this.f}null!==this.c&&null===this.a&&(this.a=b);this.c=null;this.m=!1;this.v(!1);this.A();
M()}A(a)&&this.u(a,!0);return this},range:function(a,b){if(0==arguments.length)return{"in":this.g,out:this.f};var c=+a,d=this.s;A(b)&&(d=+b);H(c);if(0>c||0>d||c>=d||isNaN(d))throw Error("Invalid range");var e=this.l();this.g=c;this.f=d;"finished"==e&&"running"==this.l()&&this.play();return this},loop:function(a){if(!A(a))return{count:this.h};this.h=!0===a?Infinity:Math.floor(a);if(0>this.h||isNaN(this.h))this.h=0;return this},j:function(){return null!==this.a?this.a:null===this.c?null:(u-this.c)*
this.b},u:function(a,b){b&&K();null!==a&&(this.A(),null!==this.a||null===this.c||0==this.b?(this.a=a,N(!1)):this.c=u-a/this.b,this.i||(this.c=null),this.o=null,this.v(!0),M())},F:function(){return this.j()},time:function(a){if(A(a)){if(!this.i)throw P;H(a);this.u(a,!0);return this}return this.F()},l:function(){var a=this.j();return this.m?"running":null===a?"idle":null===this.c?"paused":0<this.b&&a>=this.f||0>this.b&&a<=this.g?"finished":"running"},state:function(){return this.l()},duration:function(){return this.s},
G:function(a){H(a);K();var b=this.j();this.b=a;null!==b&&this.u(b,!1)},rate:function(a){return A(a)?(this.G(a),this):this.b},_cancel:function(){if(!this.i||"idle"==this.l())return this;this.c=this.a=null;this.m=!1;return this}};return{version:"1.0.0",animate:function(){var a={};if(1==arguments.length%2){a=arguments[arguments.length-1];var b={};for(c in a)b[c]=a[c];a=b}var c=new Y(a);a=arguments;for(var d=b=0;d<a.length-1;d+=2){var e=a[d];var n=e instanceof Element?e:document.getElementById(e.substring(1));
if(!n)throw Error("Invalid target: "+e);e=n;n=a[d+1];e._ks||(e._ks={});for(var k=[],f=0;f<n.length;++f){var h=n[f],g=I(h,"p","property");if("string"!=typeof g||-1!=g.indexOf("-")||""===g||!(0<R[g]||0<=aa.indexOf(g)))throw Error("Invalid property: "+g);var q=aa.indexOf(g);""!==g&&0<=q&&(g=q);q=Q(g);var m=I(h,"t","times");if(!m||2>m.length)throw Error("Not enough times");m=m.slice();if(!isFinite(m[0])||0>m[0])throw Error("Invalid time: "+m[0]);for(var B=1;B<m.length;++B)if(!isFinite(m[B])||0>m[B]||
m[B]<m[B-1])throw Error("Invalid time: "+m[B]);B=m[0];var u=m[m.length-1]-B,x=h.iterations||0;1>x&&(x=1);u*=x;b<u+B&&(b=u+B);var t=I(h,"v","values");if(!t||t.length!=m.length)throw Error("Values do not match times");t=t.slice();for(var D=g,l=t,w=Q(D)&240,p=0;p<l.length;++p)if(96==w){for(var y=l[p].substring(6,l[p].length-2).match(/[A-DF-Za-df-z][-+0-9eE., ]*/ig),C=[],r=0;r<y.length;++r){C.push(y[r][0]);for(var z=1<y[r].trim().length?y[r].substring(1).split(","):[],G=0;G<z.length;++G)z[G]=parseFloat(z[G]);
C.push(z)}l[p]=C}else if(48==w)v(l[p],"#")?l[p]=parseInt(l[p].substring(1),16):v(l[p],"url(")||"none"==l[p]||(console.warn("unsupported color: "+l[p]),l[p]=0);else if(80==w){y=l;C=p;r=l[p];if("none"==r)r=[0];else{z=[];for(var E=r.indexOf("(");0<E;)if(G=S.indexOf(r.substring(0,E)),0<=G){z.push(G);var F=r.indexOf(") ");0>F&&(F=r.length-1);E=r.substring(E+1,F).split(" ");5==G?(z.push(parseFloat(E[0])),z.push(parseFloat(E[1])),z.push(parseFloat(E[2])),z.push(ha(E[3]))):1==G?z.push(E[0]):z.push(parseFloat(E[0]));
r=r.substring(F+1).trim();E=r.indexOf("(")}else break;r=z}y[C]=r}else 64==w?"none"!=l[p]?/^[0-9 .]*$/.test(l[p])?l[p]=W(l[p]," "):(console.warn("unsupported value: "+l[p]),l[p]=[0]):l[p]=[0]:32==w?(H(l[p]),l[p]=parseFloat(l[p])):0===D&&(l[p]=parseFloat(l[p]));D=I(h,"e","easing");l=m.length;for(D||(D=[]);D.length<l;)D.push([1,0,0,.58,1]);for(l=0;l<D.length;++l)D[l]=fa(D[l]);q=[g,q,B,u,m,t,D,x];m=I(h,"mp","motionPath");A(m)&&0===g&&(q[8]=[],q[8][0]=h.motionRotate,h=document.createElementNS("http://www.w3.org/2000/svg",
"path"),m||(m="M0,0"),h.setAttribute("d",m),q[8][1]=h,q[8][2]=h.getTotalLength());k.push(q)}0<k.length&&(c.B.push(e),c.w.push(k))}c.s=b;c.g=0;c.f=c.s;Z(c);return c},add:Z,remove:O,removeAll:function(){for(var a=t.length-1;0<=a;--a)O(t[a]);return this},timelines:function(){return t.slice()},globalPlay:function(){x&&(U=x-(new Date).getTime(),x=void 0,M());return this},globalPause:function(){x||(x=u,N(!1));return this},globalState:function(){return x?"paused":"running"}}}();
]]></script>
    <script><![CDATA[if(KeyshapeJS.version.indexOf('1.')!=0)throw Error('Expected KeyshapeJS v1.*.*');window.ks=document.ks=KeyshapeJS;(function(ks){
ks.animate("#Red",[{p:'strokeDashoffset',t:[0,3000,6000],v:[800,5,5],e:[[0],[0],[0]],iterations:Infinity}],
"#Gray",[{p:'opacity',t:[0,3000,3100,6000],v:[0,0,1,1],e:[[0],[0],[0],[0]],iterations:Infinity},{p:'strokeDashoffset',t:[0,3000,6000],v:[800,800,5],e:[[0],[0],[0]],iterations:Infinity}],
"#Indicator",[{p:'rotate',t:[0,3000],v:[-50.75,309.393],e:[[0],[0]],iterations:Infinity}],
"#Dots",[{p:'rotate',t:[0,63000],v:[0,-360],e:[[0],[0]]}],
{autoremove:false}).range(0,63000).loop(true);
if(document.location.search.substr(1).split('&').indexOf('global=paused')>=0)ks.globalPause()})(KeyshapeJS);
]]></script>
</svg>
